<svg version="1.2" xmlns="http://www.w3.org/2000/svg" viewBox="0 0 1024 1024" width="1024" height="1024">
	<style>
		.s0 { opacity: .99;fill: #0c0d0d } 
	</style>
	<path id="Path 0" fill-rule="evenodd" class="s0" d="m498.29 5c-2.09 0.97-5.77 3.5-8.18 5.63-2.42 2.13-6.94 7.69-10.07 12.37-3.12 4.68-6.77 11.65-8.11 15.5-2.16 6.21-2.42 8.63-2.37 21.5 0.05 13.34 0.28 15.1 2.84 22 1.54 4.13 5.42 12.22 8.62 18 3.21 5.78 6.72 13.2 7.8 16.5 1.09 3.3 2.3 9.15 2.69 13 0.51 5.09 0.29 8.5-0.83 12.5-1.14 4.1-2.63 6.54-5.86 9.59-2.44 2.31-5.84 4.42-7.82 4.85-1.93 0.42-5.52 0.46-8 0.08-3.57-0.55-5.45-1.67-9.09-5.36-3.78-3.84-4.81-5.72-5.85-10.66-1.13-5.35-1.03-7.25 0.94-17.5 1.94-10.1 2.06-12.23 1-17.5-0.66-3.3-2.5-8.47-4.09-11.5-1.59-3.03-5.26-7.83-8.15-10.69-2.89-2.85-6.39-5.44-7.76-5.76-1.38-0.31-3.08-0.23-3.79 0.19-1.01 0.59-0.59 2.54 1.9 8.76 2.44 6.12 3.19 9.52 3.19 14.5 0 4.55-0.66 8-2.22 11.5-1.22 2.75-5.06 8.83-8.53 13.5-3.47 4.68-7.2 10.3-8.29 12.5-1.1 2.2-2.56 6.47-3.26 9.5-0.74 3.2-1.07 8.64-0.78 13 0.32 4.93 1.4 9.73 3.17 14 1.47 3.57 5.12 10.78 8.1 16 2.99 5.22 6.13 11.53 6.99 14 0.86 2.47 1.56 6.97 1.57 10 0 4.06-0.59 6.41-2.27 8.95-1.25 1.9-3.86 4.49-5.78 5.76-1.93 1.26-5.08 2.56-7 2.89-2 0.33-5.96-0.1-9.25-1.01-3.49-0.96-7.22-2.9-9.5-4.93-2.06-1.84-4.81-5.56-6.12-8.25-1.72-3.58-2.4-6.8-2.5-11.91-0.07-3.85 0.21-9.36 0.62-12.25 0.69-4.83 0.59-5.25-1.25-5.25-1.1 0-3.24 1.06-4.75 2.35-1.51 1.3-4.19 5.01-5.95 8.25-1.76 3.25-3.91 8.15-4.77 10.9-0.86 2.75-1.58 8.6-1.61 13-0.02 4.4 0.51 10.25 1.19 13 0.67 2.75 3.41 9.5 6.08 15 3.8 7.84 4.85 11.08 4.86 15 0.01 3.36-0.6 5.82-1.86 7.5-1.04 1.38-3.3 2.84-5.04 3.25-2.27 0.54-4.41 0.19-7.65-1.25-2.7-1.2-5.29-3.3-6.48-5.25-1.09-1.79-2.55-6.52-3.25-10.52-0.92-5.27-1.68-7.25-2.77-7.21-0.83 0.03-2.74-0.87-4.25-1.99-1.8-1.33-3.27-3.83-4.26-7.28-0.83-2.89-1.5-8.18-1.5-11.75 0.01-3.57 0.7-10.32 1.55-15 0.84-4.68 1.56-12.55 1.58-17.5 0.02-4.95-0.49-11.03-1.15-13.5-0.65-2.47-2.26-6.64-3.58-9.25-1.31-2.61-4.53-6.99-7.14-9.73-2.61-2.74-5.43-4.98-6.25-4.98-0.83-0.01-2.18 0.39-3 0.89-1.28 0.76-1.31 1.38-0.2 4.23 0.72 1.84 1.54 6.94 1.82 11.34 0.42 6.5 0.18 8.65-1.3 11.48-1 1.91-3.4 4.51-5.32 5.78-2.22 1.45-4.97 2.28-7.5 2.26-2.2-0.01-5.35-0.84-7-1.83-1.65-0.99-4-3.35-5.22-5.24-1.22-1.9-2.72-6.15-3.33-9.45-0.8-4.33-0.81-7.67-0.03-12 0.59-3.3 2.48-8.7 4.2-12 1.73-3.3 6.51-10.28 10.63-15.5 4.12-5.22 8.29-11.07 9.28-13 0.98-1.93 2.55-7.33 3.49-12 1.41-7.01 1.51-9.46 0.57-14-0.63-3.03-2.29-7.97-3.68-11-1.39-3.03-3.52-6.56-4.72-7.85-1.2-1.28-3.32-2.94-4.69-3.67-1.53-0.82-3.08-1.01-4-0.48-1.32 0.75-1.28 1.73 0.37 8.18 1.3 5.04 1.73 9.35 1.4 13.82-0.33 4.35-1.44 8.47-3.38 12.46-2.12 4.37-4.87 7.71-10.3 12.5-4.08 3.6-10.96 9.91-15.29 14.04-5.32 5.07-8.97 9.6-11.27 14-1.87 3.57-4.11 9.2-4.97 12.5-0.86 3.3-1.57 9.38-1.57 13.5 0 4.13 0.7 10.2 1.57 13.5 0.86 3.3 3.31 10.5 5.44 16 2.14 5.5 4.63 12.93 5.55 16.5 1.07 4.2 1.5 8.8 1.2 13-0.29 4.21-1.34 8.26-2.97 11.5-1.39 2.75-4.15 6.46-6.15 8.25-2 1.79-5.32 3.7-7.38 4.24-2.06 0.55-5.21 1-7 1-1.79 0.01-4.71-0.58-6.5-1.3-2.21-0.9-3.96-2.73-5.49-5.75-1.36-2.71-2.24-6.29-2.25-9.19-0.01-3.23 1.25-7.88 3.91-14.5 2.15-5.36 4.23-11.78 4.6-14.25 0.39-2.55 0.16-6.89-0.51-10-0.66-3.03-1.83-6.29-2.6-7.25-0.78-0.96-1.75-1.58-2.16-1.38-0.41 0.21-1.8 3.25-3.09 6.75-1.96 5.34-3.5 7.44-9.42 12.88-3.9 3.57-9.62 8.97-12.73 12-3.57 3.48-6.77 7.88-8.72 12-1.69 3.57-3.58 8.86-4.18 11.75-0.61 2.89-1.1 8.29-1.09 12 0.02 3.71 1.14 12.37 2.5 19.25 1.36 6.87 2.48 15.2 2.5 18.5 0.01 3.3-0.87 8.93-1.95 12.5-1.2 3.96-3.07 7.56-4.77 9.2-1.55 1.49-4.65 3.05-6.94 3.5-3.92 0.76-4.34 0.6-7.75-2.95-2.85-2.96-3.61-4.54-3.59-7.5 0-2.06 0.91-8.02 2.01-13.25 1.09-5.23 1.98-11.98 1.97-15 0-3.02-0.46-7.19-1.01-9.25-0.54-2.06-1.89-4.65-2.99-5.75-1.1-1.1-2.45-2-3-2-0.55 0-1.26 2.59-1.58 5.75-0.32 3.16-1.21 7.77-1.97 10.25-0.77 2.48-4.42 9.23-8.11 15-3.68 5.77-7.63 12.52-8.77 15-1.82 3.97-2.04 6.13-1.82 18.25 0.15 8.02-0.37 18.44-1.24 25-0.82 6.19-1.5 13.05-1.5 15.25 0 2.25 0.87 5.42 1.99 7.25 1.19 1.92 3.12 3.5 4.75 3.85 2.04 0.45 3.27 0.05 4.75-1.54 1.65-1.76 2.12-4.1 2.67-13.35 0.5-8.46 1.29-12.8 3.2-17.71 1.4-3.57 3.12-7.02 3.83-7.66 1.06-0.95 1.3 1.11 1.3 11 0 11.23 0.2 12.54 2.65 17.16 1.46 2.75 3.71 5.99 5 7.19 1.29 1.21 4.04 2.9 6.1 3.75 3.45 1.44 3.99 1.42 6.76-0.19 1.99-1.15 3.06-2.6 3.14-4.25 0.07-1.38 0.05-7-0.05-12.5-0.1-5.5 0.22-10.68 0.72-11.5 0.71-1.19 1.19-0.79 2.29 1.9 0.77 1.87 2.29 4.02 3.39 4.76 1.1 0.75 3.01 1.35 4.25 1.35 1.24-0.01 3.71-1.29 5.5-2.85 1.79-1.56 4.08-4.82 5.09-7.25 1.33-3.17 2.07-8.62 2.67-19.41 0.67-12.27 1.26-16.09 3.25-21 1.33-3.3 4.05-8.48 6.05-11.5 2-3.02 4.76-6.85 6.12-8.5 1.36-1.65 2.73-2.77 3.03-2.5 0.3 0.27-0.34 2.52-1.41 5-1.08 2.48-2.89 8.1-4.02 12.5-1.3 5.06-2.04 11.12-2.03 16.5 0.01 4.68 0.62 10.75 1.36 13.5 0.73 2.75 2.03 6.35 2.88 8 0.85 1.65 2.83 4.25 4.4 5.79 1.65 1.6 3.92 2.76 5.36 2.73 1.37-0.03 3-0.38 3.6-0.79 0.61-0.4 1.57-1.63 2.14-2.73 0.57-1.1 0.81-4.02 0.54-6.5-0.3-2.71 0.19-6.89 1.22-10.5 0.94-3.3 2.66-7.35 3.81-9 1.16-1.65 5.76-6.82 10.23-11.5 5.55-5.81 9.09-10.56 11.18-15 1.68-3.57 3.33-8.64 3.67-11.25 0.34-2.66 1.05-4.53 1.61-4.25 0.55 0.27 1.45 2.19 1.99 4.25 0.55 2.06 1.01 5.55 1.01 7.75 0.01 2.2-0.72 6.48-1.63 9.5-0.91 3.02-3.71 8.88-6.22 13-2.52 4.13-5.14 9.07-5.82 11-0.68 1.93-1.27 6.65-1.31 10.5-0.05 5.49 0.44 7.97 2.28 11.5 1.49 2.86 3.78 5.31 6.28 6.73 2.15 1.23 5.61 2.24 7.67 2.25 2.74 0.02 4.22-0.6 5.5-2.26 0.96-1.26 2.34-3.84 3.05-5.75 0.72-1.91 2.63-6.28 4.25-9.72 1.62-3.44 3.4-6.25 3.95-6.25 0.55 0 1 1.13 1 2.5 0 1.38 0.59 3.96 1.31 5.75 0.72 1.79 2.41 4.04 3.75 5.01 1.34 0.96 4.01 1.77 5.94 1.78 2.11 0.02 4.69-0.86 6.5-2.23 1.65-1.24 3.67-3.14 4.5-4.22 0.82-1.08 2.49-3.79 3.7-6.02 1.22-2.24 2.23-3.84 2.24-3.57 0.02 0.27 0.51 2.98 1.09 6 0.58 3.02 1.82 6.3 2.76 7.28 0.94 0.98 3.06 1.78 4.71 1.78 1.93-0.01 3.89-0.95 5.5-2.63 2.29-2.39 2.55-3.61 3.09-14.27 0.41-8.22 1.11-12.69 2.35-15.16 0.98-1.93 3.75-5.52 6.17-8 2.41-2.48 5.5-6.75 6.86-9.5l2.47-5c0.02 7.75-0.69 12.7-1.56 16-0.95 3.63-1.34 7.68-0.98 10.25 0.33 2.34 1.44 5.94 2.46 8 1.03 2.06 3.17 4.89 4.75 6.28 1.59 1.4 4.91 3.33 7.39 4.3 2.9 1.14 6.46 1.67 10 1.47 5.27-0.29 5.57-0.46 7.25-4.05 1.68-3.6 1.67-4.08-0.25-12.25-1.1-4.68-1.99-11.54-1.97-15.25 0.02-5.36 0.63-7.99 2.93-12.75 1.7-3.52 6.29-9.72 11.12-15 4.53-4.95 9.26-11.25 10.51-14 1.24-2.75 2.56-7.02 2.92-9.5 0.37-2.48 0.18-7.2-0.4-10.5-0.59-3.3-0.85-6.11-0.59-6.25 0.26-0.14 2.03 2.11 3.92 5 2 3.06 3.95 7.75 4.67 11.25 0.95 4.66 0.97 7.62 0.06 13.25-0.64 3.99-3.04 11.86-5.33 17.5-3.36 8.27-4.15 11.41-4.09 16.25 0.04 3.3 0.82 8.02 1.74 10.5 0.92 2.48 2.98 6.41 4.59 8.75 1.96 2.86 4.64 5.07 8.17 6.74 2.89 1.37 5.92 2.51 6.75 2.54 0.82 0.03 2.17-0.71 3-1.64 1.12-1.28 1.58-4.87 1.81-14.3 0.18-6.92 0.53-13.27 0.78-14.09 0.27-0.87 1.92 1.55 3.94 5.75 1.91 3.99 4.37 7.7 5.47 8.25 1.1 0.55 3.57 1 5.5 1 2.22 0 4.41-0.82 6-2.25 1.63-1.46 2.83-4 3.44-7.25 0.58-3.11 0.58-6.61 0-9.25-0.52-2.34-2.12-6.61-3.56-9.5-1.45-2.89-4.09-7.27-5.88-9.75-1.79-2.48-4.15-6.3-5.25-8.5-1.1-2.2-2.96-7.82-4.14-12.5-1.17-4.68-2.13-10.98-2.13-14 0-3.03 0.85-8.88 1.89-13 1.03-4.13 3.06-9.86 4.51-12.75 1.44-2.89 3.86-6.69 5.37-8.45 1.51-1.77 4.43-5.03 6.47-7.25 3.7-4.02 3.72-4.03 2.86-1.05-0.48 1.65-2.02 5.47-3.43 8.5-1.41 3.03-3.28 8.2-4.16 11.5-0.89 3.3-1.63 9.82-1.66 14.5-0.03 4.84 0.62 10.87 1.51 14 0.85 3.02 3.3 8.2 5.44 11.5 2.13 3.3 8.51 10.27 14.17 15.5 5.66 5.23 11.32 11.3 12.57 13.5 1.25 2.2 3.08 7.6 4.06 12 0.98 4.4 2.37 9.24 3.1 10.75 0.87 1.81 2.61 3.14 5.07 3.88 3.49 1.05 3.91 0.94 6-1.5 1.72-2.01 2.25-3.88 2.25-7.88-0.01-2.89-0.54-8.85-1.2-13.25-0.93-6.33-0.92-9.46 0.1-15 0.7-3.85 2.76-9.93 4.58-13.5 1.81-3.57 5.36-10.1 7.89-14.5 2.53-4.4 5.11-10.25 5.74-13 0.64-2.75 0.96-7.25 0.72-10-0.24-2.75-1.42-7.03-2.62-9.5-1.2-2.47-4.77-7.48-7.95-11.12-3.17-3.64-7.11-9.04-8.76-12-2.77-4.98-3-6.13-3-15.38 0-9.15 0.26-10.5 3-15.84 1.65-3.22 4.07-6.82 5.37-8l2.38-2.16c-1 10.07-0.84 15.7-0.28 19 0.55 3.3 2.33 8.7 3.95 12 1.74 3.56 6.53 9.91 11.76 15.61 5.14 5.61 10.03 12.07 11.71 15.5 1.59 3.24 3.58 9.26 4.44 13.39 1.43 6.91 1.42 8.21-0.18 16.5-1.31 6.76-3.27 12.11-7.89 21.5-5.86 11.91-6.15 12.86-6.17 20-0.02 6.01 0.46 8.48 2.44 12.43 1.36 2.72 4.01 6.09 5.89 7.5 2.25 1.69 4.71 2.57 7.15 2.57 2.33 0 4.53-0.75 5.89-2 1.19-1.1 2.88-4.48 3.76-7.5 1.39-4.83 1.43-6.96 0.31-17.5-0.71-6.6-1.68-13.13-2.16-14.5l-0.88-2.5c3.34 3.87 6.02 8.6 8.11 13 2.08 4.4 4.24 10.25 4.79 13 0.55 2.75 1.17 11.07 1.39 18.5 0.32 11.17 0.74 14.19 2.45 17.5 1.13 2.2 2.89 4.73 3.91 5.63 1.02 0.9 3.32 2.36 5.11 3.25 1.79 0.89 5.02 1.62 7.18 1.62 2.16 0 4.63-0.67 5.5-1.5 0.86-0.82 1.57-2.51 1.58-3.75 0.01-1.24-2.31-6.3-5.16-11.25-2.84-4.95-5.77-11.02-6.52-13.5-0.75-2.48-1.35-6.75-1.34-9.5 0.01-2.75 1.38-9.73 3.03-15.5 1.66-5.77 3.02-12.52 3.02-15 0-2.68-1.46-8.54-3.62-14.5-2.66-7.32-3.66-11.74-3.75-16.5-0.06-3.75 0.6-8.62 1.57-11.5 0.93-2.75 4-8.15 6.83-12 4.22-5.74 5.03-6.46 4.52-4-0.34 1.65-0.91 7.5-1.25 13-0.44 6.91-0.24 11.24 0.64 14 0.7 2.2 2.34 5.46 3.64 7.25 1.31 1.79 3.84 4.11 5.63 5.16 1.92 1.12 4.02 1.63 5.13 1.25 1.03-0.36 2.37-1.56 2.96-2.66 0.59-1.1 1.34-7.63 1.66-14.5 0.53-11.43 0.87-13.1 3.89-19.5 1.81-3.85 5.19-9.25 7.5-12 2.31-2.75 5.42-6.69 6.9-8.75 1.49-2.06 2.95-3.64 3.25-3.5 0.29 0.14-1.23 4.3-3.39 9.25-2.16 4.95-4.52 10.8-5.25 13-0.73 2.2-1.34 7.82-1.36 12.5-0.04 7.72 0.25 9.01 3.09 14 1.72 3.03 4.19 6.31 5.5 7.29 1.3 0.99 4.17 2.05 6.37 2.36 3.47 0.5 4.6 0.12 8.5-2.83 2.48-1.87 6.18-5.86 8.23-8.86 2.16-3.16 4.42-8.2 5.37-11.96 1.11-4.43 1.48-8.89 1.14-14-0.27-4.13-0.81-8.4-1.2-9.5l-0.7-2c2.62 3.1 4.57 6.47 6.02 9.5 2.31 4.81 2.64 6.75 2.64 15.5 0 8.75-0.32 10.62-2.56 15-1.4 2.75-4.1 7.44-6 10.42-3.11 4.89-3.43 6.09-3.39 12.5 0.04 5.16 0.92 9.73 3.25 16.83 2.1 6.39 3.2 11.73 3.2 15.5 0 4.24-0.75 7.33-2.84 11.75-1.56 3.3-5.39 8.93-8.5 12.5-3.12 3.57-6.15 8.07-6.74 10-0.9 2.97-0.79 3.77 0.76 5.28 1.01 0.99 3.26 1.77 5.07 1.75 1.79-0.02 4.49-0.65 6-1.41 1.51-0.76 4.35-3.12 6.3-5.25 1.95-2.13 4.43-5.78 5.5-8.11 1.26-2.74 2.21-3.8 2.68-3 0.41 0.68 0.75 3.26 0.76 5.74 0.01 2.48 0.47 6.19 1.02 8.25 0.55 2.08 2.33 4.86 3.99 6.25 1.77 1.48 4.26 2.5 6.08 2.5 2.16 0 4-0.96 6.19-3.25 3.09-3.22 3.11-3.32 2.53-11.25-0.4-5.46-1.53-10.38-3.57-15.5-1.65-4.13-3.78-11.1-4.74-15.5-1.18-5.38-1.54-9.8-1.11-13.5 0.37-3.19 2.1-8.43 4.13-12.5 1.92-3.85 4.67-8.35 6.1-10 2.54-2.93 2.58-2.94 1.97-0.5-0.35 1.38-1.35 5.2-2.22 8.5-1 3.8-1.44 8.76-1.22 13.52 0.29 5.97 1.03 8.92 3.61 14.25 2.53 5.25 5.02 8.33 11.27 13.98 4.93 4.46 8.85 8.98 10.19 11.75 1.6 3.33 2.13 6.19 2.04 11-0.09 4.64 0.36 7.19 1.56 8.91 1.5 2.13 2.2 2.34 6.19 1.79 2.55-0.35 6.15-1.83 8.32-3.41 2.1-1.53 4.68-4.59 5.74-6.79 1.1-2.31 1.91-6.12 1.9-9 0-2.76-1.07-7.91-2.38-11.5-1.31-3.57-3.36-9.2-4.55-12.5-1.43-3.97-2.06-7.69-1.85-11l0.32-5c5.72 11.93 9.02 16.37 14.5 22 4.29 4.4 8.73 10.02 9.87 12.5 1.61 3.47 2.1 6.56 2.13 13.5 0.03 6.8 0.53 10.04 2.02 13.25 1.19 2.56 3.17 4.85 4.98 5.75 1.65 0.82 4.24 1.49 5.75 1.48 1.51-0.01 3.74-1.03 4.94-2.25 2.06-2.09 2.16-2.87 1.63-12.73-0.4-7.43-0.25-10.21 0.51-9.5 0.58 0.55 3.33 6.63 6.11 13.5 3.68 9.13 5.04 13.85 5.06 17.5 0.01 2.75-0.49 7.48-1.11 10.5-0.95 4.64-0.87 6.01 0.49 8.75 0.89 1.79 2.29 3.25 3.12 3.25 0.83 0 2.74-0.63 4.25-1.4 1.51-0.78 5.45-5.03 8.75-9.47 3.3-4.43 6.34-7.85 6.75-7.59 0.41 0.25 0.75 1.47 0.75 2.71 0.01 1.24 0.91 3.71 2 5.5 1.18 1.92 2.82 3.25 4 3.25 1.1 0 3.8-0.9 6-2 2.2-1.1 4.99-3.46 6.2-5.25 1.22-1.79 2.8-5.27 3.52-7.75 0.72-2.48 1.32-8.32 1.33-13l0.02-8.5c3.77 4.65 6.01 8.81 7.4 12.25 2.04 5.05 2.96 6.25 4.78 6.27 1.24 0.01 3.6-1.37 5.25-3.07 2.47-2.55 3.07-4.1 3.38-8.77 0.26-4.06-0.14-6.68-1.41-9.18-0.97-1.93-4.7-6.88-8.28-11-3.58-4.13-7.37-9.52-8.43-12-1.05-2.48-2.12-7.65-2.37-11.5l-0.46-7c3.54 8.61 5.54 12.66 6.73 14.56 1.18 1.89 5.61 6.37 9.84 9.94 4.23 3.57 8.69 7.85 9.9 9.5 1.22 1.65 3.19 4.57 4.37 6.5 1.19 1.93 3.09 6.88 4.23 11 1.31 4.73 2.89 8.16 4.29 9.29 1.21 0.99 3.33 1.79 4.71 1.79 1.37-0.01 3.74-0.93 5.25-2.05 1.51-1.11 3.5-3.49 4.42-5.28 0.92-1.79 2.83-7.26 4.25-12.17 1.42-4.91 3.14-9.07 3.83-9.25 0.69-0.18 1.71 1.13 2.27 2.92 0.56 1.79 1.01 5.84 1 9-0.01 3.16-0.53 8.79-1.16 12.5-0.92 5.48-0.87 7.31 0.25 9.71 0.77 1.64 3.86 4.68 6.89 6.78 3.02 2.09 6.29 3.79 7.25 3.78 1.05-0.01 2.41-1.52 3.4-3.77 0.9-2.06 2.97-8.02 4.58-13.25 1.83-5.89 3.14-12.73 3.46-18 0.36-6.02 0.03-10.54-1.15-15.5-0.91-3.85-3.31-10.15-5.32-14-2.82-5.37-6.5-9.8-15.81-19-6.67-6.6-13.04-13.8-14.14-16-1.1-2.2-2.47-5.57-3.04-7.5-0.58-1.93-1.32-4.74-1.64-6.25-0.32-1.51-1.04-2.75-1.59-2.75-0.55 0-1.75 2.14-2.67 4.75-1.13 3.23-1.51 6.51-1.16 10.25 0.34 3.63 2.1 8.9 5.17 15.5 2.56 5.5 5.02 12.48 5.47 15.5 0.69 4.62 0.53 5.86-0.99 7.75-1.31 1.62-2.87 2.24-5.57 2.23-2.06-0.02-5.7-1.03-8.08-2.25-2.38-1.23-5.39-3.35-6.68-4.73-1.3-1.37-3.98-5.2-5.96-8.5-1.98-3.3-4.27-8.25-5.09-11-0.82-2.75-1.93-9.27-2.48-14.5-0.55-5.23-1.72-12.88-2.59-17-0.88-4.12-2.92-10.43-4.54-14-1.62-3.57-4.64-8.75-6.71-11.5-2.07-2.75-6.65-7.18-10.19-9.85-3.54-2.67-11.6-7.62-17.91-11-6.63-3.55-13.41-8.05-16.05-10.65-2.51-2.47-5.98-7.43-7.69-11-1.72-3.57-3.84-7.06-4.7-7.75-1.32-1.04-1.77-0.88-2.72 1-0.75 1.47-0.91 4.66-0.46 9.25 0.38 3.85 1.61 9.03 2.73 11.5 1.12 2.47 2.93 5.63 4.01 7 1.09 1.38 4.09 4.69 6.67 7.36 2.58 2.67 8.06 7.21 12.19 10.08 4.12 2.87 8.79 6.76 10.38 8.64 1.58 1.88 3.99 5.67 5.36 8.42 2.06 4.12 2.43 6.11 2.13 11.33-0.32 5.41-0.77 6.68-3.12 8.75-2 1.76-3.9 2.41-7 2.39-3.69-0.02-4.78-0.58-8.25-4.27-2.2-2.34-5.08-6.94-6.41-10.23-1.33-3.28-3.35-7.24-4.5-8.79-1.15-1.56-2.44-2.46-2.87-2-0.42 0.45-0.03 5.32 0.88 10.82 1.34 8.16 1.44 11.2 0.52 16.5-0.83 4.81-1.83 7.22-3.87 9.27-2.16 2.17-3.67 2.77-7 2.75-3.18-0.01-4.88-0.65-6.75-2.52-1.38-1.38-2.98-4.41-3.57-6.75-0.83-3.29-0.69-6.72 0.62-15.25 1.42-9.24 1.49-11.96 0.47-17-0.68-3.3-2.14-7.8-3.26-10-1.12-2.2-4.28-6.7-7.02-10-2.74-3.3-6.28-8.59-7.86-11.75-1.58-3.16-3.44-8.23-4.13-11.27-0.7-3.11-1.8-5.51-2.5-5.5-0.69 0.01-1.98 1.71-2.87 3.77-1.21 2.81-1.48 5.63-1.08 11.25 0.37 5.35 1.59 10.23 4.23 17 2.57 6.56 3.86 11.67 4.19 16.5 0.34 4.88 0.02 8.21-1.05 11-0.84 2.2-2.91 5.24-4.6 6.75-1.69 1.51-4.53 3.02-6.32 3.34-2 0.36-4.79-0.05-7.25-1.06-2.2-0.91-4.84-2.41-5.86-3.34-1.02-0.93-3.27-4.39-5-7.69-3.1-5.93-3.14-6.17-3.12-20.5 0.01-13.72 0.21-15.2 3.74-27.5 2.05-7.15 4.24-16.6 4.87-21 0.64-4.4 0.91-12.5 0.62-18-0.39-7.22-1.27-12.09-3.19-17.5-1.46-4.13-3.63-9.07-4.82-11-1.19-1.93-4.43-5.92-7.2-8.87-2.77-2.96-7.52-7.06-10.54-9.13-3.03-2.06-12.48-7.13-21-11.27-12.44-6.05-16.56-8.59-20.88-12.88-2.96-2.94-6.17-6.93-7.14-8.85-0.96-1.92-2.71-6.65-3.89-10.5-1.17-3.85-2.12-8.69-2.11-10.75 0.01-2.06-0.43-4.88-0.98-6.25-0.61-1.53-1.68-2.4-2.75-2.25-1.15 0.17-2.38 2.16-3.57 5.75-1.01 3.03-2.31 8.87-2.91 13-0.87 6.05-0.79 8.95 0.44 15 0.84 4.12 2.82 10.2 4.39 13.5 1.58 3.3 4.9 8.18 7.38 10.84 2.49 2.65 9.68 8.73 15.99 13.5 6.59 4.97 13.52 11.21 16.28 14.66 2.65 3.3 5.73 8.47 6.86 11.5 1.13 3.03 2.31 8.43 2.63 12 0.5 5.57 0.24 7.21-1.83 11.43-1.32 2.72-3.95 6.09-5.83 7.5-2.89 2.17-4.48 2.57-10.17 2.57-5.87 0-7.28-0.38-10.99-3-2.35-1.65-5.5-5.03-7.01-7.5-1.52-2.47-4.41-10.13-6.43-17-2.02-6.88-4.58-14.3-5.7-16.5-1.11-2.2-3.46-5.8-5.22-8-1.76-2.2-4.88-5.13-6.94-6.5-3.01-2.01-3.98-2.25-4.93-1.23-0.92 0.99-0.69 3.13 1.04 9.5 1.23 4.53 2.24 9.92 2.25 11.98 0.01 2.06-0.6 4.99-1.37 6.5-0.76 1.51-2.45 3.29-3.75 3.94-1.3 0.66-3.71 1.48-5.36 1.83-2.06 0.43-4.7-0.1-8.42-1.69-3.42-1.47-6.86-3.99-9.32-6.83-2.14-2.47-5.21-7.31-6.83-10.75-1.73-3.69-3.3-9.21-3.84-13.5-0.58-4.59-0.54-9.82 0.09-14.25 0.55-3.85 1.86-9.25 2.91-12 1.05-2.75 1.91-5.56 1.91-6.25 0-0.69-0.9-1.25-2-1.25-1.1 0-3.24 0.61-4.75 1.37-1.51 0.75-4.7 3.56-7.09 6.25-2.38 2.68-5.98 8.25-8 12.38-3.6 7.37-3.66 7.71-3.65 19.5 0.01 11.97 0.02 12.03 4.88 24.5 3.85 9.88 4.96 14.07 5.3 20 0.34 5.91 0.05 8.24-1.38 10.98-0.99 1.91-3.39 4.51-5.31 5.78-2.55 1.67-4.92 2.29-8.75 2.27-3.35-0.02-6.94-0.84-9.91-2.28-2.56-1.24-5.9-3.82-7.42-5.75-1.52-1.93-3.81-5.75-5.09-8.5-1.99-4.26-2.32-6.55-2.29-15.5 0.04-9.65 0.36-11.35 3.9-21 2.12-5.78 4.89-14.32 6.15-19q2.31-8.5 2.33-17c0.02-4.67-0.44-10.53-1.01-13-0.57-2.47-2.31-7.2-3.87-10.5-1.56-3.3-5.06-8.47-7.77-11.5-2.72-3.03-7.16-6.95-9.86-8.73-2.94-1.93-6.21-3.23-8.16-3.25-2.43-0.01-3.26 0.42-3.28 1.73-0.02 0.96 1.17 3.55 2.64 5.75 1.47 2.2 4.06 6.7 5.76 10 2.78 5.41 3.09 6.89 3.07 15-0.01 7.17-0.47 9.97-2.23 13.75-1.31 2.83-3.53 5.56-5.46 6.75-1.9 1.17-5.01 1.99-7.5 2-3.45 0-4.88-0.61-7.59-3.25-2.49-2.43-3.75-4.95-5-10-0.91-3.71-3.07-9.56-4.79-13-1.73-3.44-5.97-10.3-9.43-15.25-3.46-4.95-7.43-11.47-8.83-14.5-1.39-3.03-2.98-8.65-3.52-12.5-0.66-4.66-0.65-9.68 0.02-15 0.56-4.4 2.18-10.92 3.59-14.5 1.42-3.58 3.42-8.19 4.44-10.25 1.02-2.06 1.69-4.09 1.49-4.5-0.2-0.41-1.31-1.03-2.46-1.38-1.19-0.36-3.75 0.13-5.88 1.13zm-175.17 225.7c1.77-2.09 3.27-3.66 3.33-3.49 0.06 0.17-0.74 3-1.77 6.3-1.35 4.27-1.78 8-1.5 12.99 0.3 5.36 1.15 8.53 3.62 13.5 1.78 3.57 5.93 10.1 9.23 14.5 3.3 4.4 6.94 10.25 8.09 13 1.15 2.75 2.33 7.02 2.62 9.5 0.29 2.48 0.02 6.75-0.6 9.5-0.62 2.75-2.48 6.91-4.13 9.25-1.66 2.34-4.7 5.11-6.76 6.15-2.06 1.05-5.33 2.23-7.25 2.62-2.23 0.46-3.77 0.31-4.25-0.4-0.41-0.62-0.01-4.61 0.89-8.87 0.99-4.71 1.44-10.11 1.13-13.75-0.3-3.63-1.78-8.96-3.74-13.5-1.79-4.13-4.43-10.2-5.87-13.5-2.27-5.2-2.61-7.4-2.63-16.5-0.01-9.8 0.2-10.93 3.18-17 1.76-3.57 4.64-8.21 6.41-10.3zm498.85 77.05c0.02-3.16 0.25-5.75 0.53-5.75 0.27 0 1.91 2.81 3.64 6.25 1.73 3.44 3.98 8.73 5.02 11.75 1.03 3.02 1.86 7.64 1.86 10.25-0.01 2.61-0.7 6.1-1.52 7.75-0.83 1.65-2.4 3.45-3.5 4-1.1 0.55-2.9 0.77-4 0.5-1.1-0.27-2.9-1.85-4-3.5-1.1-1.65-1.99-4.24-1.97-5.75 0.01-1.51 0.9-6.57 1.97-11.25 1.07-4.68 1.96-11.09 1.97-14.25zm-439.44-249.5c-2.85 2.93-4.81 6.28-6.31 10.75-1.3 3.91-2.56 11.28-3.15 18.5-0.53 6.6-1.65 14.25-2.47 17-0.82 2.75-2.73 6.8-4.24 9-1.5 2.2-4.23 6.14-6.05 8.75-1.82 2.61-3.31 5.65-3.31 6.75 0 1.1 0.56 2.19 1.25 2.43 0.69 0.24 3.05-0.42 5.25-1.47 2.2-1.04 7.04-4.39 10.75-7.43 5.17-4.24 7.46-6.99 9.79-11.78 2.78-5.72 3.02-7.02 2.82-15.25-0.13-4.95-0.23-12.83-0.23-17.5q0-8.5 2.02-15.23c1.11-3.7 1.87-7.18 1.69-7.75-0.19-0.56-1.09-1.02-2.01-1.02-0.92 0-3.53 1.91-5.8 4.25zm-130.35 52.75c-2.3 1.65-5.99 5.81-8.2 9.25-2.38 3.71-4.46 8.48-5.11 11.75-0.83 4.14-0.79 7.61 0.15 14 0.71 4.85 0.93 10.22 0.5 12.5-0.41 2.2-1.6 5.91-2.64 8.25-1.03 2.34-1.87 5.04-1.86 6 0 0.96 0.34 2.36 0.75 3.11 0.6 1.11 1.28 1.03 3.73-0.43 1.65-0.99 4.5-3.17 6.34-4.86 1.84-1.69 4.37-5.1 5.63-7.57 1.26-2.47 2.54-6.53 2.84-9 0.31-2.54-0.14-7.55-1.03-11.5-1.32-5.89-1.37-7.95-0.33-13 0.69-3.3 2.56-8.92 4.17-12.5 1.61-3.58 2.92-7.06 2.9-7.75-0.01-0.69-0.84-1.25-1.84-1.25-1.01 0-3.71 1.35-6 3zm506.32 4.67c-0.46 0.36-0.76 1.38-0.66 2.25 0.09 0.87 2.87 5.63 6.17 10.58 3.83 5.73 6.4 10.82 7.1 14 0.79 3.63 0.79 6.65-0.02 11-0.6 3.3-1.1 7.57-1.11 9.5 0 1.93 0.65 5.75 1.44 8.5 0.95 3.3 2.73 6.25 5.26 8.68 2.39 2.3 4.34 3.43 5.22 3 1.07-0.52 1.24-2.01 0.75-6.43-0.47-4.12-0.06-8.51 1.44-15.5 1.27-5.91 1.91-11.72 1.63-14.75-0.26-2.75-1.36-7.03-2.44-9.5-1.09-2.47-4.18-6.94-6.88-9.92-2.69-2.99-7.26-6.92-10.15-8.75-2.89-1.83-5.63-3.33-6.08-3.33-0.46 0-1.21 0.3-1.67 0.67zm-367 12.9c-1.65 0.85-4.52 2.99-6.38 4.74-1.85 1.75-4.18 4.99-5.16 7.19-0.99 2.2-2.1 6.03-2.46 8.5-0.41 2.7-0.04 8.09 0.9 13.5 0.87 4.95 1.47 10.56 1.34 12.46-0.19 2.77 0.16 3.55 1.76 3.86 1.1 0.22 3.47-0.44 5.27-1.46 1.8-1.02 3.72-2.99 4.26-4.36 0.55-1.38 0.92-7.45 0.84-13.5-0.11-7.63 0.37-12.99 1.56-17.5 0.94-3.57 2.58-7.96 3.64-9.75 1.06-1.79 1.93-3.7 1.93-4.25 0-0.55-1.01-1-2.25-0.99-1.24 0-3.6 0.7-5.25 1.56zm444.08 12.31c-1.35 2.37-1.7 5.38-1.65 14.07 0.04 6.08-0.16 11.73-0.43 12.55-0.27 0.82-1.29 1.51-2.25 1.51-0.96 0.01-5.13-2.05-9.25-4.56-4.13-2.52-8.51-4.78-9.75-5.02-1.41-0.27-2.44 0.13-2.75 1.07-0.27 0.82 0.29 2.87 1.25 4.54 0.96 1.67 4.45 5.2 7.75 7.85 3.3 2.66 11.17 8.59 17.5 13.18 6.33 4.6 15.1 11.36 19.5 15.03 4.4 3.67 9.4 8.19 11.11 10.04 1.71 1.85 5.06 6.06 7.45 9.36 2.4 3.3 7.41 11.96 11.15 19.25 3.76 7.34 7.68 13.7 8.79 14.25 1.53 0.76 2.39 0.59 3.64-0.75 1.28-1.37 1.52-3.06 1.12-7.75-0.3-3.43-2.07-9.97-4.14-15.25-1.99-5.09-3.9-11.61-4.25-14.5-0.38-3.17-0.15-6.84 0.59-9.25 0.68-2.2 3.26-8.5 5.74-14 2.48-5.5 4.24-10.56 3.9-11.25-0.47-0.99-1.18-0.96-3.35 0.12-1.51 0.76-5.34 4.59-8.5 8.5-3.16 3.92-7.21 7.85-9 8.74-2.1 1.04-4.31 1.38-6.25 0.95-1.65-0.37-5.7-2.61-9-4.98-3.3-2.38-7.82-6.29-10.05-8.7-2.23-2.41-5.24-6.41-6.68-8.88-1.44-2.47-3.29-7.2-4.1-10.5-0.82-3.3-2.09-10.66-2.83-16.36-0.74-5.7-1.84-10.79-2.44-11.32-0.76-0.65-1.66 0-2.82 2.06zm-651.03 15.37c-0.22 0.69-0.89 8-1.49 16.25-0.6 8.25-1.94 18.82-2.98 23.5-1.05 4.68-2.82 10.97-3.95 14-1.13 3.03-3.78 8.2-5.89 11.5-2.11 3.3-7.19 9.49-11.29 13.75-6.83 7.1-7.78 7.75-11.45 7.77-3.43 0.02-4.92-0.77-10.5-5.56-3.57-3.08-8.52-6.93-11-8.55-2.47-1.62-5.29-2.94-6.25-2.93-0.96 0.01-2.01 0.58-2.33 1.27-0.32 0.69 0.11 2.6 0.95 4.25 0.84 1.65 4.49 6.6 8.12 11 3.63 4.4 7.92 10.7 9.53 14 1.69 3.47 2.94 7.69 2.96 10 0.02 2.2-0.85 9.18-1.94 15.5-1.09 6.32-2.05 14.43-2.15 18-0.1 3.57 0.11 7.51 0.47 8.75 0.35 1.24 1.88 2.87 3.39 3.63 1.51 0.76 4.1 1.69 5.75 2.06 1.96 0.45 3.43 0.23 4.26-0.63 0.69-0.72 1.9-6.26 2.69-12.31 0.79-6.05 2.14-14.38 3.01-18.5 0.87-4.13 2.53-10.43 3.68-14 1.16-3.57 3.63-9.43 5.49-13 1.86-3.57 5.57-9.43 8.25-13 2.67-3.57 8.41-9.83 12.74-13.89 4.33-4.07 14.86-11.99 23.38-17.6 8.53-5.62 16.06-10.95 16.75-11.86 0.69-0.91 1.06-1.99 0.83-2.4-0.23-0.41-2.82-0.48-5.75-0.14-2.93 0.33-9.04 2.24-13.58 4.25-5.11 2.25-9.49 3.54-11.5 3.39l-3.25-0.25c0.43-17.05 0.11-27.4-0.43-34-0.54-6.6-1.23-12.79-1.53-13.75-0.3-0.96-1.45-1.75-2.56-1.75-1.12 0-2.21 0.56-2.43 1.25zm444.95 122.83c-2.75 1.09-6.46 3.09-8.25 4.45-1.79 1.36-4.64 5.28-6.33 8.72-2.89 5.86-3.06 6.81-2.68 15.25 0.29 6.55 0.97 10.09 2.47 13 1.14 2.2 3.36 5.29 4.93 6.86 1.57 1.57 4.66 3.82 6.86 4.99 3.18 1.69 5.75 2.13 12.5 2.12 7.23 0 9.25-0.39 13.5-2.62 2.75-1.44 6.91-4.69 9.25-7.23 2.94-3.2 4.75-6.39 5.88-10.37 1.06-3.75 1.46-7.84 1.14-11.75-0.29-3.53-1.52-8.06-2.99-11-1.37-2.75-4.24-6.46-6.38-8.25-2.15-1.79-5.92-3.93-8.4-4.76-2.47-0.83-7.2-1.49-10.5-1.45-3.5 0.03-8.08 0.88-11 2.04zm-512.5 52c-3.02 1.1-7.05 2.99-8.93 4.21-1.89 1.22-5.37 4.46-7.74 7.21-2.36 2.75-5.43 7.25-6.82 10-1.38 2.75-2.97 7.7-3.53 11-0.56 3.3-0.75 7.8-0.43 10 0.32 2.2 1.31 6.25 2.2 9 0.89 2.75 3.79 8.82 6.43 13.5 2.65 4.68 6.13 12.55 7.74 17.5 1.61 4.95 3.43 11.93 4.05 15.5 0.61 3.57 1.44 13.48 1.83 22 0.38 8.52 0.4 24.73 0.03 36-0.37 11.27-1.4 26.8-2.28 34.5-0.88 7.7-2.03 16.7-2.55 20-0.68 4.31-1.59 6.51-3.22 7.8-1.26 0.98-2.73 1.63-3.28 1.44-0.55-0.19-1.79-1.9-2.76-3.79-1.64-3.22-1.65-4.25-0.27-15.45 0.81-6.6 2.22-20.1 3.12-30 1.1-12.07 1.48-23.28 1.15-34-0.4-12.81-0.95-17.4-2.74-23-1.22-3.85-3.37-9.25-4.76-12-1.4-2.75-5.03-8.82-8.08-13.5-3.04-4.68-6.8-11.31-8.35-14.75-1.54-3.44-3.72-9.51-4.84-13.5-1.12-3.99-2.28-11.52-2.59-16.75-0.32-5.55 0.06-15.53 0.93-24 0.92-8.95 1.15-15.17 0.59-16.25-0.7-1.37-1.34-1.53-2.9-0.75-1.1 0.55-2.52 2.01-3.16 3.25-0.63 1.24-2.16 7.43-3.4 13.75-1.23 6.32-2.77 17.8-3.41 25.5-0.64 7.7-1.59 15.01-2.1 16.25-0.73 1.77-1.73 2.25-4.68 2.24-2.06 0-6.67-0.89-10.25-1.98-3.57-1.08-8.3-2.26-10.5-2.62-2.54-0.41-4.27-0.23-4.75 0.48-0.41 0.62 0.15 2.26 1.25 3.63 1.1 1.38 7.28 5.09 13.73 8.25 9.1 4.46 13.32 7.24 18.75 12.35 5.34 5.02 8.05 8.62 11.31 15 2.89 5.67 4.92 11.49 6.24 17.9 1.33 6.5 1.95 13.61 1.96 22.5 0.01 7.15 0.68 17.27 1.47 22.5 0.8 5.23 3 14 4.88 19.5 1.88 5.5 3.55 12.02 3.7 14.5 0.15 2.48-0.01 6.3-0.36 8.5-0.39 2.42-1.83 5.28-3.66 7.25q-3.02 3.25-5.77 3.23c-1.51-0.01-4.66-1.14-7-2.5-3.01-1.76-4.9-3.86-6.49-7.23-1.96-4.17-2.3-6.94-2.82-22.75-0.52-15.99-0.87-18.73-3.09-24.5-1.38-3.57-4.32-9.2-6.53-12.5-2.2-3.3-5.2-6.79-6.67-7.75-1.46-0.96-3.47-1.75-4.48-1.75-1.01 0-2.14 0.23-2.5 0.5-0.37 0.27 1.24 4.15 3.58 8.61 3.21 6.13 4.33 9.49 4.59 13.75 0.22 3.55-0.8 11.48-2.75 21.39-1.74 8.85-3.09 18.92-3.08 23 0 3.99 0.48 10.17 1.06 13.75 0.57 3.58 2.15 9.65 3.49 13.5 1.35 3.85 3.91 9.44 5.7 12.43 1.78 2.99 6.17 8.56 9.74 12.38 3.58 3.83 10.4 9.71 15.16 13.07 4.76 3.37 12.62 8.6 17.48 11.62 4.85 3.02 12.2 8.71 16.34 12.63 4.14 3.91 8.73 9.31 10.2 12 1.47 2.68 2.99 7.12 3.37 9.87 0.52 3.71 0.28 5.84-0.93 8.25-0.89 1.79-3.08 3.98-4.87 4.87-2.18 1.08-4.48 1.41-7 1-2.4-0.4-5.28-2.03-8-4.53-2.34-2.16-5.13-5.65-6.21-7.75-1.07-2.11-3.89-6.88-6.25-10.59-2.73-4.3-6.2-8.12-9.54-10.53-2.89-2.08-6.49-4.33-8-5-1.51-0.67-3.65-1.22-4.75-1.22-1.1 0-2.22 0.45-2.5 1-0.27 0.55 1.76 4.26 4.53 8.25 4.7 6.77 5.16 8.01 7.06 18.75 1.19 6.71 3.09 13.58 4.55 16.5 1.38 2.75 4.28 7.36 6.44 10.25 2.15 2.89 6.51 7.29 9.67 9.78 3.16 2.5 10.25 7.32 15.75 10.72 5.5 3.4 12.54 8.67 15.64 11.71 3.17 3.11 6.78 7.95 8.24 11.04 1.93 4.08 2.6 7.11 2.61 11.75 0.01 5.76-0.26 6.52-3.39 9.75-3.01 3.1-3.99 3.5-8.5 3.5-2.96 0-6.67-0.78-8.85-1.86-2.06-1.02-5.45-3.84-7.54-6.25-2.08-2.41-4.7-6.87-5.82-9.89-1.13-3.02-3.25-7.7-4.72-10.39-1.47-2.69-5.14-7.13-8.17-9.88-3.02-2.74-7.41-5.83-9.75-6.86-2.34-1.03-4.7-1.64-5.25-1.37-0.55 0.27-1.02 1.29-1.04 2.25-0.02 0.96 1.75 4 3.93 6.75 2.17 2.75 4.62 6.58 5.43 8.5 0.82 1.92 2.02 7.1 2.69 11.5 0.66 4.4 2.11 10.92 3.21 14.5 1.11 3.58 3.14 8.75 4.52 11.5 1.39 2.75 4.3 7.25 6.48 10 2.17 2.75 6.05 6.73 8.62 8.85 2.56 2.12 7.59 5.48 11.16 7.47 3.58 1.99 9.43 4.69 13 6 3.58 1.32 10.33 3.51 15 4.87 4.68 1.37 11.16 3.91 14.41 5.65 3.66 1.96 7.2 4.87 9.31 7.66 1.87 2.48 3.64 5.4 3.95 6.5 0.3 1.1 0.31 3.13 0.02 4.5-0.34 1.64-1.84 3.15-4.36 4.38-2.82 1.38-4.95 1.71-8.08 1.25-2.34-0.35-5.94-1.48-8-2.51-2.06-1.03-5.77-3.24-8.25-4.91-2.47-1.67-5.74-3.3-7.25-3.62-2.48-0.53-2.75-0.32-2.75 2.16 0 1.51 1.54 5 3.42 7.75 1.87 2.75 5.58 6.72 8.24 8.81 2.66 2.1 7.54 5.14 10.84 6.76 3.3 1.62 12.3 4.52 20 6.45 7.7 1.93 16.25 4.61 19 5.96 2.75 1.35 7.43 4.6 10.4 7.24 2.96 2.63 8.03 8.49 11.25 13.03 3.22 4.54 5.85 8.7 5.85 9.25 0 0.55-3.26 1.77-7.25 2.7-4.29 1.01-11.54 1.72-17.75 1.75-9.49 0.05-11.08-0.22-16.5-2.77-3.3-1.55-8.92-5.19-12.5-8.09-3.57-2.89-9.42-8.08-13-11.53-3.57-3.45-8.3-7.58-10.5-9.19-2.2-1.61-4.79-2.91-5.75-2.9-0.96 0.02-1.75 0.48-1.75 1.03 0 0.55 0.74 2.46 1.65 4.25 0.91 1.79 3.98 6.4 6.83 10.25 2.85 3.85 10.43 12.51 16.85 19.25 6.42 6.74 11.67 12.92 11.67 13.75 0 0.83-1.62 3.86-3.6 6.75-1.98 2.89-4.67 7.05-5.98 9.25-1.31 2.2-2.39 5.13-2.42 6.5-0.03 2.29 0.24 2.45 3.23 1.89 1.8-0.34 6.65-3.08 10.77-6.11 4.13-3.02 9.98-6.74 13-8.27 3.03-1.53 7.3-3.43 9.5-4.21 2.2-0.78 13.9-3.5 26-6.03 20.1-4.21 23.21-4.61 36-4.61 10.81 0 15.94 0.47 22.5 2.08 4.68 1.15 11.2 3.33 14.5 4.85l6 2.77c-17.05 1.26-25.26 2.53-29.25 3.64-3.99 1.1-8.6 2.67-10.25 3.5-1.65 0.83-3 2.17-3 3 0 0.89 1.51 1.89 3.75 2.47 2.06 0.53 9.15 1.41 15.75 1.95 6.6 0.55 14.25 1.65 17 2.46 2.75 0.81 7.02 2.99 9.5 4.85 2.48 1.86 4.9 4.48 5.39 5.82 0.49 1.35 0.6 3.69 0.25 5.2-0.41 1.74-2.02 3.56-4.39 4.96-2.79 1.64-5.8 2.31-11.75 2.6-5.46 0.27-10.07-0.15-14.5-1.31-3.57-0.94-11-3.97-16.5-6.73-5.5-2.76-12.25-5.9-15-6.97-2.75-1.08-7.14-2.37-9.75-2.88-2.61-0.51-5.87-0.69-7.25-0.42-1.87 0.37-2.5 1.13-2.5 3 0 1.99 1.08 3.09 5.25 5.36 2.89 1.58 10.2 6.95 16.25 11.95 6.05 5 13.48 10.57 16.5 12.38 3.02 1.81 8.43 4.38 12 5.71 5.24 1.96 8.34 2.42 16 2.38 7.11-0.03 11.64-0.67 18-2.54 4.68-1.38 14.58-4.42 22-6.77 12.7-4.02 14.21-4.27 25.5-4.31 9.34-0.04 13.88 0.45 20.5 2.19 4.68 1.24 11.65 3.45 15.5 4.91 3.85 1.47 8.08 3.59 9.41 4.7 1.32 1.12 2.17 2.49 1.88 3.04-0.3 0.55-3.85 2.64-7.91 4.65-4.06 2.01-9.86 4.37-12.88 5.25-3.02 0.87-9.1 2.04-13.5 2.59-5.54 0.7-10.76 0.67-17-0.09-7.78-0.94-9.2-0.88-10.5 0.46-0.9 0.92-1.2 2.17-0.75 3.09 0.41 0.85 3.11 2.74 6 4.19 2.89 1.46 8.4 3.73 12.25 5.04 3.85 1.32 10.38 2.67 14.5 3.01 4.53 0.37 10.07 0.12 14-0.63 3.58-0.69 8.52-1.93 11-2.75 2.48-0.82 10.58-3.91 18-6.85 7.43-2.95 17.55-6.33 22.5-7.51 6.34-1.51 11.27-2.04 16.7-1.8 4.68 0.21 8.21 0.87 9 1.68 1.07 1.1 0.5 2.06-3.28 5.5-2.52 2.29-7.85 5.97-11.85 8.17-4 2.2-7.68 4.56-8.17 5.25-0.56 0.78-0.43 1.83 0.35 2.79 0.84 1.04 2.89 1.53 6.25 1.49 2.75-0.03 7.93-0.74 11.5-1.56 3.58-0.83 11.45-3.34 17.5-5.59 6.05-2.24 15.27-5.25 20.5-6.69 7.95-2.18 11.61-2.6 22.5-2.61 10.94-0.01 14.51 0.4 22.5 2.59 5.23 1.44 15.13 4.3 22 6.36 11.2 3.37 13.69 3.76 24 3.82 8.32 0.04 13.02-0.43 17-1.69 3.02-0.96 7.65-2.97 10.28-4.45 2.62-1.49 5-3.38 5.27-4.21 0.27-0.83 0.01-1.95-0.57-2.5-0.59-0.55-4.32-0.87-8.28-0.71-3.96 0.17-10.57-0.35-14.7-1.15-4.12-0.8-10.42-2.56-14-3.91-3.58-1.35-9.31-3.86-12.75-5.59-3.44-1.73-6.25-3.59-6.25-4.14 0-0.55 1.69-1.85 3.75-2.88 2.06-1.04 7.8-2.89 12.75-4.13 7.38-1.83 10.8-2.15 19-1.74 7 0.35 14.12 1.59 23.75 4.13 9.53 2.51 15.9 3.62 20.75 3.62 3.85 0 9.36-0.5 12.25-1.11 2.89-0.61 8.63-2.86 12.75-5.01 4.13-2.14 11.55-7.34 16.5-11.55 4.95-4.21 11.48-8.81 14.5-10.21 3.79-1.75 7.6-2.63 12.25-2.83 5.58-0.24 6.92-0.64 7.75-2.29 0.78-1.56 0.56-2.44-1-4-1.1-1.1-4.14-2.96-6.75-4.14-3.04-1.36-7.63-2.31-12.75-2.62-7.26-0.45-8.51-0.24-13.5 2.25-3.02 1.51-8.42 4.8-12 7.32-3.58 2.51-7.96 5.16-9.75 5.88-1.79 0.72-4.71 1.33-6.5 1.34-1.79 0.02-4.37-0.8-5.75-1.84-1.37-1.03-2.79-2.73-3.14-3.78-0.36-1.05 0.14-3.71 1.1-5.91 0.95-2.2 3.83-5.91 6.39-8.25 2.56-2.34 7.69-6.23 11.4-8.65 3.71-2.42 9.11-5.35 12-6.5 2.89-1.16 8.51-2.59 12.5-3.19 5.2-0.78 8.95-0.78 13.25-0.01 3.3 0.59 8.87 2.54 12.37 4.34 3.53 1.8 8.22 5.3 10.5 7.83 2.27 2.51 6.94 8.02 10.38 12.25 3.44 4.22 6.92 7.68 7.75 7.68 0.83 0 1.78-1.24 2.13-2.75 0.35-1.53-0.16-5.63-1.14-9.25-0.97-3.58-1.98-8.08-2.24-10-0.37-2.74-0.07-3.69 1.39-4.35 1.02-0.47 5.24-1.67 9.36-2.67 4.13-1 12.9-3.92 19.5-6.5 6.6-2.57 17.47-6.09 24.16-7.83 6.69-1.73 12.77-3.72 13.5-4.41 1.11-1.04 1.04-1.55-0.45-3-1.51-1.47-3.67-1.73-14-1.66-10.34 0.07-13.51 0.49-20.71 2.77-4.67 1.48-13.67 3.85-20 5.26-9.04 2.02-12.99 2.43-18.5 1.96-3.85-0.34-10.05-1.61-13.78-2.84-3.73-1.23-6.77-2.57-6.75-2.98 0.02-0.41 3.07-1.71 6.78-2.89 3.71-1.18 9.45-3.47 12.75-5.1 3.3-1.63 7.92-4.83 10.26-7.11 2.35-2.28 4.27-4.82 4.28-5.65 0-1.2-0.66-1.33-3.27-0.67-1.8 0.45-6.19 1.22-9.77 1.71-3.58 0.49-12.24 0.91-19.25 0.93-7.24 0.02-15.67 0.66-19.5 1.48-3.71 0.8-9.23 2.31-12.25 3.36-3.02 1.05-6.29 2.19-7.25 2.55-0.96 0.35-1.75 0.3-1.74-0.11 0-0.41 3.26-4.15 7.25-8.31 4.42-4.62 9.18-8.49 12.24-9.95 2.75-1.31 7.48-2.58 10.5-2.82 3.02-0.25 9.77 0.14 15 0.86 7.82 1.07 10.82 1.07 17-0.01 4.13-0.72 10.65-2.62 14.5-4.22 3.85-1.59 10.15-4.85 14-7.23 4.11-2.54 10.01-7.58 14.27-12.2 5.84-6.32 7.27-7.43 7.25-5.62-0.01 1.24-1.37 4.95-3.02 8.25-1.73 3.47-6.38 9.59-11 14.5l-8 8.5c5.81 1.75 12.45 2.25 18.5 2.23 6.05-0.02 15.05-0.8 20-1.72 4.95-0.93 11.92-2.8 15.5-4.15 3.58-1.35 8.53-3.63 11-5.05 2.48-1.43 6.5-4.22 8.95-6.2 2.45-1.99 6.44-6.31 8.86-9.61 2.43-3.3 7.24-11.62 10.69-18.5 3.46-6.87 7.91-14.19 9.89-16.25 1.99-2.06 5.75-4.97 8.36-6.46 2.61-1.49 5.29-3.41 5.95-4.25 0.97-1.24 0.87-1.79-0.5-2.81-0.94-0.7-4.39-1.26-7.7-1.25-4.5 0.02-7.5 0.73-12 2.87-3.54 1.69-7.87 4.87-10.55 7.75-2.5 2.7-6.44 7.71-8.75 11.15-2.31 3.44-6.11 7.6-8.45 9.25-2.34 1.65-5.83 3.27-7.75 3.6-1.92 0.33-5.19 0.11-7.25-0.5-2.06-0.6-4.43-2.11-5.26-3.35-0.83-1.24-1.5-3.94-1.5-6 0.01-2.06 0.89-6.11 1.96-9 1.07-2.89 3.7-7.27 5.83-9.75 2.14-2.48 6.32-6.15 9.3-8.16 2.98-2.01 9.92-5.59 15.42-7.95 5.5-2.36 13.83-6.52 18.5-9.25 5.2-3.03 11.22-7.7 15.52-12.05 5.18-5.23 8.12-9.32 11.21-15.59 2.3-4.67 5.27-12.33 6.61-17 1.33-4.67 2.25-9.06 2.04-9.75-0.21-0.69-1.17-1.26-2.13-1.26-1.04-0.01-3.98 3.08-7.25 7.62-3.02 4.2-6.74 8.48-8.25 9.51-1.51 1.03-4.03 1.99-5.6 2.13-1.57 0.14-3.65-0.42-4.62-1.25-1.39-1.18-1.63-2.4-1.15-5.75 0.34-2.34 1.82-6.61 3.28-9.5 1.47-2.89 4.73-7.42 7.25-10.08 2.53-2.66 9.09-7.57 14.59-10.92 5.5-3.35 12.48-8.02 15.5-10.38 3.02-2.36 7.35-6.68 9.61-9.58 2.26-2.91 5.25-7.54 6.64-10.29 1.4-2.75 3.25-7.48 4.12-10.5 0.87-3.02 1.77-8.87 1.99-13 0.23-4.12-0.2-12-0.94-17.5-0.75-5.5-1.37-13.26-1.39-17.25-0.02-5.1-0.4-7.26-1.28-7.28-0.69-0.01-2.24 1-3.44 2.25-1.21 1.26-3.11 4.3-4.22 6.78-1.11 2.48-3.32 11.02-4.92 19-1.59 7.98-3.77 16.52-4.85 19-1.08 2.48-3.51 6.24-5.39 8.38-1.89 2.13-4.67 4.49-6.18 5.25-1.51 0.75-4.55 1.37-6.75 1.37-2.88 0-4.56-0.63-6.02-2.25-1.24-1.38-2-3.6-1.98-5.75 0.03-1.92 1.06-5.98 2.31-9 1.24-3.02 4.56-9.33 7.38-14 2.81-4.67 7.12-13 9.58-18.5 2.45-5.5 5.85-13.83 7.55-18.5 1.7-4.67 4.07-12.1 5.26-16.5 1.2-4.4 3.65-15.2 5.44-24 1.79-8.8 4.3-18.7 5.57-22 1.28-3.3 3.94-8.02 5.91-10.5 1.97-2.48 5.58-5.51 8.04-6.75 2.94-1.49 7.87-2.63 14.46-3.36 8.18-0.9 10.33-1.49 11.8-3.25 1.64-1.96 1.65-2.27 0.19-3.64-0.87-0.82-5.51-2.44-10.29-3.6-6.46-1.56-9.18-2.72-10.56-4.5-1.78-2.3-1.79-2.83-0.25-12.4 0.88-5.5 1.6-15.29 1.61-21.75 0-6.46-0.45-14-1-16.75q-1-4.99-2.75-5.51c-0.96-0.28-1.86-0.39-2-0.25-0.14 0.14-0.88 6.33-1.66 13.76-0.77 7.43-1.95 15.75-2.63 18.5-0.67 2.75-2.31 8.82-3.63 13.5-1.33 4.68-3.07 9.51-3.87 10.75-0.8 1.24-2.58 2.7-3.96 3.25q-2.5 1-4.5 0c-1.1-0.55-2.87-2.91-3.93-5.25-1.06-2.34-2.47-7.4-3.14-11.25-0.72-4.23-1-11.94-0.71-19.5 0.39-9.84 1.04-14.09 3.04-20 1.4-4.12 3.72-10.09 5.14-13.25 1.43-3.16 2.6-6.87 2.6-8.25 0-1.37-0.34-2.5-0.75-2.51-0.41 0-1.65 0.6-2.75 1.34-1.1 0.74-4.53 4.9-7.63 9.26-3.09 4.35-7.2 11.06-9.13 14.91-1.93 3.85-4.24 9.48-5.14 12.5-0.89 3.02-1.89 8.88-2.23 13-0.34 4.13-0.06 11.77 0.61 17 0.67 5.23 2.33 14.23 3.68 20 1.35 5.77 2.83 15.23 3.28 21 0.44 5.77 0.87 11.51 0.94 12.75 0.06 1.24-0.22 2.25-0.63 2.24-0.41 0-2.54-2.82-4.73-6.25-2.2-3.43-5.8-8.8-8-11.94-2.21-3.13-4.58-5.72-5.27-5.75-0.94-0.04-1.09 1.52-0.62 6.2 0.35 3.44 1.72 10.98 3.05 16.75 1.33 5.77 3.13 13.88 4.01 18 1.03 4.88 1.6 12.92 1.65 23 0.06 14.99-0.04 15.81-3.2 25-1.8 5.23-4.67 11.98-6.38 15-1.7 3.02-5.23 8.2-7.84 11.5-2.6 3.3-6.01 7.18-7.58 8.63-1.56 1.44-5.54 4.45-8.84 6.68-3.3 2.24-8.25 4.97-11 6.08-2.75 1.12-8.94 3.17-13.75 4.57-6.07 1.76-8.9 3.08-9.23 4.29-0.27 0.96 0.19 4 1.01 6.75 0.82 2.75 1.49 8.83 1.49 13.5 0 4.67-0.68 10.86-1.51 13.75-1.15 4.01-2.28 5.72-4.76 7.25-1.79 1.09-4.71 1.99-6.5 2-1.99 0-4.2-0.87-5.68-2.25-1.34-1.24-3.14-4.39-4-7-1.12-3.38-1.57-8.72-1.57-18.5 0-11.09-0.34-14.43-1.75-17.24-1-2.01-3.46-4.45-5.75-5.74-2.2-1.23-6.48-2.55-9.5-2.93l-5.5-0.69c1.19 10.73 1.86 18.02 2.26 23.11 0.48 5.99 0.39 9.25-0.26 9.24-0.55-0.01-2.64-2.6-4.65-5.76-2.01-3.16-5.68-9.79-8.14-14.74-2.47-4.95-5.87-12.6-7.56-17-1.69-4.4-5.38-11.83-8.2-16.5-2.81-4.67-6.59-11.42-8.39-15-1.81-3.58-4.3-9.65-5.56-13.5-1.25-3.85-3.28-9.02-4.51-11.5-1.23-2.48-3.53-6.02-5.11-7.88-1.59-1.86-4-3.95-5.38-4.63-1.37-0.68-3.51-1.52-4.75-1.86-1.72-0.48-2.25-0.21-2.24 1.12 0 0.96 1.65 4.45 3.66 7.75 2.27 3.73 3.9 7.89 4.31 11 0.36 2.75 0.51 5.56 0.34 6.25-0.18 0.69-1.33 1.25-2.57 1.25-1.24 0-4.84-2.03-8-4.5-3.16-2.48-7.18-6.64-8.93-9.25-1.76-2.61-3.78-6.21-4.5-8-0.73-1.79-2.23-7.19-3.35-12-1.12-4.81-2.81-10.68-3.75-13.03-0.95-2.36-2.17-4.29-2.72-4.3-0.55 0-1.53 0.57-2.17 1.29-0.64 0.71-1.92 5.34-2.84 10.29-1.02 5.51-2.8 11.04-4.58 14.25l-2.91 5.25c18.21 18 28.87 27.56 35.43 32.86 6.57 5.3 13.99 12.02 16.5 14.92 2.51 2.91 6.28 8.09 8.36 11.5 2.08 3.42 4.68 9.14 5.77 12.72 1.09 3.58 2.25 9.88 2.58 14 0.42 5.26-0.05 11.98-1.58 22.5-1.21 8.25-1.93 16.58-1.62 18.5 0.31 1.92 2.03 5.59 3.82 8.15 1.78 2.56 4.48 5.6 5.99 6.75 1.51 1.16 3.42 1.87 4.25 1.6 1.26-0.42 1.4-2.19 0.86-11.25-0.35-5.91-0.31-12.1 0.09-13.75l0.73-3c2.91 5.42 5.12 10.49 6.79 14.75 2.18 5.58 3.2 10.2 3.63 16.5 0.43 6.26 0.14 10.88-1.02 16.25-0.89 4.12-3.07 10.59-4.85 14.37-1.77 3.77-3.79 7.26-4.48 7.75-0.77 0.54-1.85 0.4-2.79-0.37-0.88-0.71-1.53-2.76-1.51-4.75 0.02-1.92 0.6-6.07 1.29-9.21 0.69-3.14 0.91-6.07 0.49-6.5-0.43-0.44-2.8 1.23-5.28 3.71-2.79 2.79-5.3 6.59-6.58 10-1.59 4.24-1.96 6.99-1.59 12 0.29 3.88 2.19 11.54 4.72 19 3.85 11.36 4.19 13.18 3.78 20-0.29 4.92-1.16 8.87-2.53 11.5-1.15 2.2-4.03 5.89-6.42 8.2-2.38 2.31-6.8 5.33-9.83 6.72-3.07 1.41-9.26 3.04-14 3.67-6.56 0.88-9.76 0.87-14-0.08-3.02-0.68-8.76-2.31-12.75-3.62-5.13-1.69-8.35-2.2-11-1.75-2.06 0.35-5.77 1.67-8.25 2.94-2.47 1.27-6.52 3.66-9 5.31-2.47 1.65-4.91 2.69-5.4 2.31-0.5-0.39-0.69-4.3-0.42-8.7 0.4-6.47 1.29-9.86 4.66-17.75 2.95-6.92 4.16-11.13 4.14-14.5 0-2.61-0.43-5.42-0.93-6.25-0.82-1.33-1.22-1.33-3.63 0-1.49 0.83-5.45 4.45-8.81 8.05-4.21 4.52-6.96 8.64-8.86 13.25-1.8 4.39-3.62 12.3-5.28 22.95-1.39 8.94-2.81 17.83-3.15 19.75l-0.62 3.5c-1.39-6.2-2.67-13.62-3.74-20.5-1.07-6.87-2.19-12.73-2.5-13-0.31-0.27-1.33-0.02-2.26 0.57-0.94 0.59-2.56 2.84-3.61 5-1.06 2.16-3.2 11.58-4.78 20.93-1.57 9.35-3.58 19.25-4.47 22-0.89 2.75-2.91 7.59-4.48 10.75-1.57 3.16-4.55 7.61-6.61 9.89-2.06 2.27-6.45 6.04-9.75 8.37-3.3 2.34-7.01 4.52-8.25 4.87-2.16 0.59-2.2 0.49-1.05-2.63 0.66-1.79 3.13-6.06 5.5-9.5 2.36-3.44 4.3-6.7 4.3-7.25 0-0.55-1.12-1-2.5-1-1.37 0-3.96 0.73-5.75 1.62-1.79 0.9-5.05 3.08-7.25 4.85-2.2 1.77-7.15 7.16-11 11.97-3.85 4.82-9.25 10.42-12 12.46-2.75 2.03-7.59 5.14-10.75 6.9-3.16 1.76-5.76 2.86-5.78 2.45-0.02-0.41 0.92-1.65 2.1-2.75 1.17-1.1 7.2-8.75 13.39-17 6.2-8.25 14.59-18.15 18.66-22 4.06-3.85 12.11-10.63 17.89-15.06 5.77-4.44 12.16-10.29 14.19-13 2.04-2.72 4.73-7.64 6-10.94 1.95-5.1 2.29-7.87 2.28-18.5 0-11.48-0.22-12.95-2.66-18-1.46-3.02-3.39-6.17-4.28-7-1.05-0.97-1.92-1.15-2.47-0.5-0.47 0.55-1.57 3.59-2.46 6.75-1.1 3.94-2.56 6.54-4.61 8.25-1.65 1.38-4.24 2.51-5.75 2.53-1.69 0.01-3.72-0.99-5.25-2.59-2.12-2.23-2.56-3.77-2.88-10.28-0.32-6.28 0.13-9.42 2.5-17.4 1.58-5.36 2.66-10 2.38-10.32-0.27-0.32-2.08-0.1-4 0.49-1.92 0.59-5.75 2.78-8.5 4.87-3.45 2.62-5.93 5.64-8 9.75-2.8 5.55-2.97 6.56-2.63 14.95 0.21 4.95 0.44 13.32 0.5 18.6 0.09 6.84-0.3 10.4-1.37 12.37-0.83 1.52-2.74 3.38-4.25 4.14-1.51 0.77-3.65 1.39-4.75 1.39-1.1 0-3.35-0.79-5.01-1.75-1.69-0.99-3.66-3.39-4.5-5.5-0.82-2.06-1.5-5.89-1.5-8.5-0.01-2.61 0.89-9.25 2.01-14.75 1.12-5.5 2.02-10.79 2.01-11.75 0-0.96-0.71-1.75-1.58-1.75-0.86 0-3.92 2.36-6.81 5.25-2.95 2.95-6.64 8.1-8.43 11.75-2.02 4.13-3.54 9.23-4.17 14-0.55 4.12-1.36 12.45-1.8 18.5-0.68 9.33-1.17 11.52-3.26 14.43-1.35 1.89-4.04 4.06-5.96 4.82-1.92 0.76-4.62 1.14-6 0.83-1.37-0.31-3.47-1.58-4.65-2.82-1.19-1.24-2.63-4.06-3.21-6.26q-1.05-4-0.09-9c0.52-2.75 2.23-7.48 3.79-10.5 1.56-3.02 5.27-10.2 8.24-15.94l5.42-10.45c0-20.4-0.22-21.6-3.16-27.63-2.08-4.28-5.15-8.34-9.05-11.98-3.24-3.02-7.52-6.4-9.51-7.5-3.22-1.78-3.79-1.84-5.24-0.5-0.9 0.83-1.6 2.62-1.56 4 0.03 1.37 1.18 6.33 2.55 11 1.37 4.67 2.47 10.75 2.46 13.5-0.02 2.75-0.84 6.8-1.82 9-0.99 2.21-3.33 4.99-5.23 6.22-2.26 1.45-4.99 2.22-7.94 2.22-3.89 0-4.97-0.51-8.02-3.72-2.13-2.24-4.08-5.7-4.91-8.72-0.93-3.32-1.2-7.51-0.82-12.5 0.31-4.13 0.84-8.29 1.16-9.25 0.41-1.22 0.06-1.75-1.16-1.77-0.96 0-3.42 1.68-5.45 3.75-2.04 2.08-4.73 6.02-5.98 8.77-1.9 4.17-2.27 6.67-2.24 15 0.03 7.53 0.72 12.72 2.82 21 2.04 8.1 2.62 12.32 2.19 16-0.32 2.75-1.6 7.02-2.84 9.5-1.58 3.16-3.37 5.02-6 6.25-2.67 1.25-4.54 1.51-6.5 0.91-1.51-0.46-3.54-2.14-4.51-3.75-0.98-1.62-1.81-5.12-1.87-7.91-0.07-2.75 0.88-9.05 2.11-14 1.68-6.75 2.11-10.75 1.72-16-0.28-3.85-1.48-9.92-2.67-13.5-1.19-3.58-5.14-11-8.77-16.5-3.64-5.5-7.89-12.81-9.44-16.25-1.55-3.44-3.38-6.55-4.07-6.91-0.71-0.37-2.22 0.49-3.5 2-1.24 1.46-2.54 4.35-2.9 6.41-0.36 2.06-0.22 8.25 0.3 13.75 0.61 6.29 0.62 11.3 0.02 13.5-0.52 1.92-2.2 4.74-3.73 6.25-1.89 1.87-3.85 2.76-6.11 2.78-1.85 0.01-4.88-1-6.83-2.3-1.92-1.27-4.51-4.1-5.73-6.27-1.23-2.18-3.71-8.45-5.5-13.94-2.36-7.2-5.98-14.57-12.99-26.5-5.35-9.08-10.15-17.19-10.66-18.02-0.8-1.29-1.15-1.22-2.44 0.5-0.83 1.1-1.74 3.35-2.02 5-0.29 1.65-0.11 5.92 0.39 9.5 0.5 3.58 2.72 11.79 4.93 18.25 2.36 6.89 4.02 13.61 4.02 16.25 0 2.48-0.67 5.85-1.5 7.5-0.82 1.65-2.29 3.24-3.25 3.53-0.96 0.28-3.1 0.58-4.75 0.65-1.65 0.08-4.35-0.5-6-1.27-1.81-0.85-3.92-3.2-5.31-5.91-2.09-4.06-2.26-5.41-1.75-13.75 0.42-7.03 0.26-9.25-0.69-9.27-0.69-0.01-2.69 1.45-4.45 3.25-1.75 1.8-4.45 5.97-5.99 9.27-2.44 5.26-2.79 7.18-2.77 15.5 0.01 7.94 0.39 10.24 2.33 14 1.27 2.48 4.78 8.1 7.8 12.5 4.23 6.18 5.62 9.14 6.08 13 0.55 4.6 0.36 5.23-2.33 7.78-2.15 2.06-3.91 2.78-6.67 2.75-2.06-0.01-5.1-0.7-6.75-1.53-1.65-0.83-3.74-2.96-4.63-4.75-0.9-1.79-2.29-7.3-3.08-12.25-0.8-4.95-2.09-10.46-2.87-12.25-0.78-1.79-1.87-3.25-2.42-3.25-0.55 0-1.49 1.24-2.08 2.75-0.59 1.51-1.71 6.58-2.48 11.25-0.77 4.67-1.41 11.09-1.42 14.25-0.01 3.16 0.78 8.34 1.76 11.5 0.98 3.16 3.42 8 5.42 10.75 2 2.75 4.91 6.18 6.47 7.62 1.55 1.45 5.08 4.19 7.83 6.1 2.75 1.91 7.36 4.66 10.25 6.13 2.89 1.46 7.84 3.29 11 4.06 3.16 0.78 6.76 1.23 8 1 1.69-0.31 2.25-1.1 2.25-3.16 0.01-1.51-1.79-5.79-4-9.5-2.2-3.71-3.66-6.76-3.25-6.78 0.41-0.01 2.55 1.28 4.75 2.88 2.2 1.6 5.85 4.88 8.1 7.28 2.26 2.4 6.72 7.74 9.93 11.87 3.21 4.12 9.57 11.89 14.15 17.25 4.58 5.36 8.1 10.09 7.84 10.5-0.27 0.41-1.96 0.02-3.75-0.87-1.8-0.89-8.44-3.52-14.77-5.84-6.32-2.32-19.6-8.2-29.5-13.05-12.27-6.02-20.86-11.01-26.98-15.66-4.94-3.76-13.06-10.88-18.04-15.83-4.97-4.95-11.13-11.92-13.67-15.5-2.54-3.58-6.19-9.65-8.11-13.5-1.92-3.85-3.99-8.8-4.59-11-0.61-2.2-1.1-6.36-1.1-9.25-0.01-2.89 0.73-6.94 1.63-9l1.63-3.75c1.79 8.52 3.21 12.58 4.32 14.5 1.2 2.09 2.9 3.6 4.21 3.75 1.59 0.18 2.88-0.8 4.63-3.5 1.34-2.06 3.37-6.56 4.5-10 1.14-3.44 2.36-9.51 2.71-13.5 0.42-4.71 0.25-8.04-0.5-9.5-0.77-1.53-2.02-2.24-3.89-2.21-1.51 0.02-5.45 0.68-8.75 1.46-3.3 0.79-9.6 1.72-14 2.07-4.42 0.35-11.58 0.13-16-0.49-4.52-0.64-10.61-2.34-14-3.92-3.3-1.53-7.69-4.44-9.75-6.47-2.06-2.03-5.04-6.28-6.62-9.44-1.58-3.16-3.56-8.23-4.41-11.25-0.84-3.02-2.09-9.33-2.76-14-0.73-5.01-1.02-13.02-0.7-19.5 0.34-7.12 1.62-15.67 3.63-24.25 1.71-7.29 3.1-13.59 3.09-14 0-0.41-0.43-1.42-0.93-2.25-0.75-1.21-1.75-0.55-5.24 3.45-2.37 2.73-5.38 6.55-6.68 8.5-1.31 1.95-3.4 5.57-4.65 8.05-1.25 2.48-3.07 7.2-4.04 10.5-1.25 4.21-1.77 9.29-1.74 17 0.03 7.5 0.72 14.02 2.19 20.5 1.27 5.63 3.94 13.16 6.55 18.5 2.42 4.95 8.09 13.95 12.6 20 4.51 6.05 9.92 14.6 12.01 19 2.1 4.4 3.58 8.23 3.3 8.5-0.28 0.27-2.16-1.33-4.18-3.57-2.02-2.25-7.27-8.06-11.67-12.92-4.4-4.86-12.72-12.62-18.5-17.23-5.77-4.61-16.57-12.52-24-17.58-7.85-5.35-16.85-12.55-21.51-17.2-5.97-5.96-8.95-9.92-11.68-15.5-2.01-4.13-4.17-9.52-4.8-12-0.62-2.48-0.98-6.75-0.81-9.5l0.33-5c2.68 8.52 5.15 13.87 7.21 17.38 2.07 3.51 6.51 8.91 9.87 12 3.36 3.09 9.89 7.76 14.5 10.37 4.61 2.61 9.18 4.75 10.14 4.75 0.96 0 1.98-0.56 2.27-1.25 0.29-0.69-1.29-6.31-3.5-12.5-2.21-6.19-4.92-15.75-6.02-21.25-1.1-5.5-2-13.71-2.01-18.25 0-4.54 0.64-10.73 1.43-13.75 0.78-3.02 2.34-7.98 3.47-11 1.13-3.02 2.75-6.4 3.62-7.5 1.43-1.83 1.5-1 0.79 10-0.42 6.6-0.64 14.48-0.48 17.5 0.18 3.41 1.12 6.93 2.48 9.27 1.21 2.08 2.65 3.62 3.2 3.43 0.55-0.2 3.03-4.03 5.5-8.52 2.48-4.49 6.35-10.31 8.6-12.92 2.26-2.62 5.98-7.68 8.28-11.26 2.3-3.58 4.82-8.52 5.6-11 0.78-2.48 1.72-6.52 2.09-9 0.37-2.49 0.11-7.63-0.58-11.5-0.69-3.85-1.65-7.79-2.12-8.75-0.48-0.96-1.56-1.64-2.4-1.5-0.86 0.14-3.08 3.79-5.02 8.25-1.91 4.4-4.26 8.79-5.21 9.76-1.54 1.56-1.97 1.6-3.74 0.33-1.62-1.16-2.07-2.83-2.35-8.76-0.28-5.87 0.14-8.72 2.12-14.33 1.36-3.85 3.73-9.92 5.25-13.5 1.65-3.87 2.98-9.13 3.28-13 0.41-5.19-0.03-8.26-2.15-15.25-1.46-4.81-3.34-9.09-4.19-9.5-0.84-0.41-1.99-0.3-2.55 0.25-0.55 0.55-1.38 4.6-1.84 9-0.46 4.4-1.56 9.46-2.45 11.25-0.89 1.79-2.41 3.26-3.37 3.27-1.02 0.02-2.76-1.74-4.2-4.25-1.87-3.27-2.54-6.15-2.87-12.27-0.31-6 0.08-9.75 1.58-15 1.09-3.85 3.62-10.94 5.62-15.75 1.99-4.81 3.62-9.65 3.62-10.75 0-1.1-0.56-2.02-1.25-2.04-0.69-0.02-4.63 3.47-8.76 7.75-4.61 4.79-8.91 10.49-11.16 14.79-2.01 3.85-4.21 9.92-4.89 13.5-0.68 3.58-1 8.98-0.71 12 0.29 3.02 2.15 10.56 4.15 16.75 2.42 7.54 3.62 13.15 3.63 17 0 3.99-0.69 7.13-2.25 10.25-2.06 4.1-2.62 4.52-6.26 4.77-2.75 0.19-4.58-0.28-5.85-1.5-1.02-0.97-2.56-3.12-3.41-4.77-1.21-2.33-1.51-5.89-1.36-16 0.17-10.74-0.15-14.13-1.85-19.5-1.13-3.58-3.18-7.96-4.54-9.75-1.37-1.79-4.4-4.6-6.74-6.25q-4.25-3-10.75-4.11c-4.78-0.81-8.09-0.8-12.5 0.02-3.3 0.62-6.67 1.81-7.5 2.64-1.34 1.34-0.76 2.19 5.24 7.73 3.71 3.42 7.2 7.46 7.75 8.97 0.56 1.51 1.01 4.33 1.01 6.25 0 2.63-0.85 4.37-3.4 7-2.8 2.88-4.13 3.5-7.5 3.5-2.26 0-5.9-0.9-8.1-2-2.2-1.1-5.71-4.14-7.79-6.75-2.09-2.61-4.82-7.45-6.08-10.75-1.25-3.3-2.58-8.7-2.95-12-0.38-3.3-0.55-8.02-0.38-10.5l0.29-4.5c28.69-0.13 32.8-0.53 39.41-2.36 4.4-1.22 10.7-3.41 14-4.87 3.3-1.45 8.45-4.25 11.44-6.21 3-1.96 7.68-5.58 10.41-8.06 2.72-2.48 7.01-7.2 9.52-10.5 2.51-3.3 6.45-9.6 8.76-14 2.3-4.4 5.31-11.6 6.68-16 1.36-4.4 3.03-11.38 3.7-15.5 0.77-4.69 1.03-12.75 0.72-21.5-0.36-9.74-1.16-16.44-2.64-22-1.17-4.4-4.03-11.82-6.36-16.5-2.72-5.49-6.35-10.74-10.22-14.83-3.66-3.85-8.17-7.38-11.51-9-4.65-2.24-6.82-2.65-14-2.64-7.54 0.01-9.11 0.35-13.89 2.99-2.97 1.64-8.48 6.24-12.25 10.23-3.85 4.07-7.03 6.7-7.26 6-0.21-0.69-0.02-5.98 0.43-11.75 0.45-5.77 1.63-15.68 2.62-22 1.17-7.53 1.8-17.2 1.82-28 0.03-14.23-0.23-16.98-1.84-20-1.02-1.93-2.82-4.56-4-5.85-1.17-1.29-3.82-3.2-5.88-4.25-2.69-1.36-5.8-1.89-11-1.86-4.68 0.02-9.2 0.74-12.75 2.04zm44.25 117.92c1.79-1.09 4.38-1.99 5.75-1.99 1.38 0 3.96 0.9 5.75 1.99 2.09 1.29 4.22 4.05 5.97 7.75 2.42 5.12 2.72 6.91 2.73 16.25 0.01 6.9-0.55 12.38-1.64 16-1.19 3.95-2.8 6.56-5.73 9.25-2.53 2.33-5.5 3.99-7.83 4.39-2.73 0.47-4.7 0.13-7.23-1.25-2.03-1.1-4.53-3.77-5.98-6.39-2.07-3.74-2.56-6.18-2.89-14.5-0.29-7.37 0.05-11.58 1.3-16 0.93-3.3 2.79-7.69 4.12-9.75 1.34-2.06 3.89-4.65 5.68-5.75zm-4.83 190.75c-0.4-0.96-0.33-1.75 0.17-1.76 0.5 0 1.92 0.67 3.16 1.5 1.24 0.83 3.36 3.42 4.71 5.76 1.35 2.34 3.42 6.95 4.59 10.25 1.47 4.11 2.16 8.52 2.21 14 0.04 5.42-0.47 9.21-1.6 11.75-0.91 2.06-2.67 4.25-3.91 4.85-1.24 0.61-3.26 0.83-4.5 0.5-1.56-0.42-2.76-2.05-3.92-5.35-1.46-4.17-1.51-5.86-0.45-13.75 0.67-4.95 1.39-10.58 1.61-12.5 0.22-1.92 0.01-5.75-0.47-8.5-0.47-2.75-1.19-5.79-1.6-6.75zm718.24 48c0.24-0.41 0.67-0.75 0.95-0.75 0.28 0 0.22 4.16-0.13 9.25-0.36 5.09-1.31 11.95-2.13 15.25-0.81 3.3-3.25 9.71-5.42 14.25-2.72 5.71-5.7 10.04-9.68 14.04-3.16 3.19-8.53 7.58-11.92 9.75-3.4 2.18-9.42 5.98-13.4 8.46-3.97 2.48-10.53 7.54-14.57 11.25-4.05 3.71-7.36 6.52-7.36 6.25 0-0.27 1.6-5.11 3.55-10.75 1.95-5.64 4.66-15.88 6.02-22.75 1.36-6.88 3.7-15.83 5.2-19.89 1.5-4.06 2.96-7.51 3.23-7.65 0.28-0.14 0.5 4.38 0.5 10.05 0 9.63 0.16 10.48 2.5 12.93 1.64 1.71 3.54 2.6 5.5 2.58 1.65-0.02 5.25-1.08 8-2.36 3.05-1.42 7.15-4.67 10.5-8.35 3.03-3.31 7.13-9.35 9.13-13.42 1.99-4.06 4.86-11.89 6.36-17.39 1.5-5.5 2.93-10.34 3.17-10.75zm-708.16 84.08l4 0.63c2.2 0.35 6.25 1.35 9 2.23 2.75 0.87 7.7 2.94 11 4.6 3.3 1.65 8.25 4.67 11 6.71 2.75 2.04 6.91 5.8 9.25 8.36 2.34 2.55 4.25 5.54 4.25 6.64 0 1.1-0.71 2.67-1.57 3.5-0.87 0.83-3.12 1.5-5 1.5-2.56 0-4.25-0.84-6.68-3.32-1.79-1.82-5.3-5.98-7.81-9.25-2.51-3.26-8.02-8.52-12.25-11.68-4.23-3.16-7.91-5.75-8.19-5.75-0.28 0-1.96-0.94-3.75-2.09zm280.21 48.92c1.76-5.67 1.81-5.71 2.98-3.08 0.68 1.54 1.04 5.69 0.85 9.76-0.28 5.77-1.32 9.48-5.63 20.08-4.91 12.09-5.31 13.7-5.7 23-0.23 5.53 0.11 12.67 0.77 16 0.65 3.3 2.38 8.58 3.85 11.75 1.47 3.16 2.33 5.97 1.92 6.25-0.41 0.27-3.79-2.14-7.5-5.37-3.71-3.22-9.27-8.51-12.34-11.75-3.08-3.23-7.32-8.58-9.42-11.88-2.1-3.3-4.57-7.8-5.49-10-0.92-2.2-2.23-6.25-2.92-9-0.68-2.75-1.23-7.48-1.23-10.5 0-3.08 0.81-7.38 1.83-9.76 1-2.35 1.93-4.15 2.08-4 0.14 0.14 0.4 3.18 0.58 6.76 0.25 4.8 1.09 7.93 3.25 12 2.41 4.55 3.42 5.55 5.91 5.83 2.52 0.28 3.72-0.46 7.5-4.61 2.48-2.71 7.29-9.61 10.71-15.33 3.42-5.72 7.02-12.98 8-16.15zm-220.09 2.45c1.2-0.84 3.14-1.07 5.38-0.65 1.93 0.36 5.64 1.74 8.25 3.06 2.61 1.32 8.16 5.66 12.34 9.65 4.17 3.98 9.01 9.4 10.75 12.03 1.74 2.63 2.93 4.97 2.66 5.2-0.27 0.24-3.65-0.5-7.5-1.63-3.85-1.13-10.15-3.69-14-5.69-3.85-2-9.56-6.12-12.68-9.15-3.29-3.2-5.97-6.78-6.38-8.51-0.54-2.33-0.28-3.3 1.18-4.31zm278.12 29.55c0.88-0.97 1.72-1.56 1.88-1.32 0.16 0.24-0.14 2.72-0.67 5.51-0.52 2.79-0.95 7.2-0.96 9.82 0 2.61 0.7 7.45 1.57 10.75 0.86 3.3 3.37 9.82 5.57 14.5 2.21 4.67 5.67 10.71 7.69 13.41 2.03 2.7 5.26 5.97 7.18 7.26 2.3 1.54 4.95 2.33 7.75 2.33 3.62 0 4.77-0.56 7.76-3.75 1.94-2.07 4.41-5.55 5.5-7.75 1.1-2.2 2.19-5.8 2.43-8 0.25-2.2 0.5-4.23 0.57-4.5 0.07-0.28 0.52 0.4 0.99 1.5 0.47 1.1 0.89 4.58 0.93 7.75 0.05 4.02-0.74 7.77-2.62 12.5-1.97 4.96-4.16 8.2-8.25 12.25-3.27 3.22-8.88 7.22-13.57 9.66-4.39 2.29-10.98 4.99-21.29 7.84l-4.85-3.06c-2.67-1.68-8.34-5.62-12.6-8.75-4.75-3.49-9.52-8.11-12.31-11.94-2.51-3.44-5.22-8.5-6.01-11.25-0.8-2.75-1.45-7.37-1.44-10.25 0.01-2.89 0.46-5.48 1.01-5.75 0.55-0.28 1 0.28 0.99 1.25-0.01 0.96 1.01 4.63 2.25 8.15 1.37 3.87 3.84 8.15 6.26 10.82 2.2 2.43 5.8 5.11 8 5.95 2.49 0.95 5.41 1.3 7.75 0.93 2.22-0.36 4.81-1.72 6.36-3.35 2.29-2.42 2.54-3.35 2.09-7.75-0.29-2.75-1.9-7.93-3.59-11.5-1.68-3.58-3.57-9.65-4.2-13.5-0.86-5.24-0.86-8.26-0.01-12 0.63-2.75 2.29-7.48 3.69-10.5 1.4-3.03 3.27-6.29 4.15-7.26zm-20.24-518.2c-2.2 0.8-5.03 2.47-6.29 3.71-1.25 1.23-3.02 4.27-3.91 6.75-1.14 3.13-1.44 6.02-1 9.5 0.35 2.81 2.8 9.59 5.59 15.5 2.74 5.77 5.67 13.2 6.52 16.5 0.86 3.3 2.02 10.95 2.6 17 0.74 7.82 0.72 14.03-0.06 21.5-0.61 5.8-2.61 15.64-4.46 22-1.85 6.32-4.92 15.32-6.83 20-1.9 4.67-5.76 13.56-8.56 19.75-2.81 6.18-5.77 14.06-6.59 17.5-0.81 3.43-1.49 8.38-1.5 11 0 2.61 0.69 6.43 1.55 8.5 0.86 2.06 2.59 5.1 3.85 6.75 1.26 1.65 4.5 4.21 7.19 5.7 2.7 1.49 7.26 3.18 10.15 3.75 3.7 0.74 6.95 0.73 11-0.04 3.16-0.6 8-2.2 10.75-3.57 2.75-1.36 6.95-4.36 9.33-6.66 2.38-2.3 5.4-5.98 6.7-8.18 1.31-2.2 3.06-6.93 3.91-10.5 0.84-3.58 1.54-8.98 1.55-12 0.01-3.03-0.66-10.9-1.47-17.5-0.82-6.6-1.95-17.52-2.51-24.25-0.66-8.08-0.68-16.09-0.04-23.5 0.53-6.19 1.88-14.29 3-18 1.39-4.64 3.2-8.02 5.78-10.8 2.15-2.32 5.03-4.3 6.75-4.63 1.99-0.38 4.09 0.06 6.23 1.3 1.78 1.03 4.1 3.45 5.16 5.38 1.06 1.92 2.62 5.97 3.45 9 0.84 3.02 1.82 8.65 2.17 12.5 0.36 3.85 0.13 11.72-0.5 17.5-0.63 5.77-2.51 18.15-4.16 27.5-1.66 9.35-4.13 23.52-5.5 31.5-1.52 8.9-2.69 20.48-3.02 30-0.44 12.41-0.21 16.89 1.12 22.5 0.91 3.85 2.94 9.25 4.51 12 1.57 2.75 5.03 7 7.7 9.45 2.66 2.45 7.32 5.6 10.34 7 4.9 2.27 6.74 2.54 17 2.52 10.7-0.03 11.95-0.25 18-3.08 3.81-1.79 7.92-4.67 9.92-6.97 1.88-2.16 4.24-5.72 5.23-7.92 1.04-2.3 1.81-6.34 1.81-9.5 0-3.45-0.78-7.19-2.07-10-1.14-2.48-4.68-8.1-7.87-12.5-3.2-4.4-7.2-10.82-8.91-14.25-1.71-3.44-4.12-9.97-5.36-14.5-1.96-7.2-2.24-10.49-2.14-25.75 0.1-14.32 0.6-20.14 2.78-32 1.47-7.98 3.82-22.15 5.24-31.5 2.12-14.04 2.47-19.19 2.02-29.5-0.3-6.88-1.24-14.98-2.09-18-0.84-3.03-2.76-7.98-4.25-11-1.49-3.03-4.75-7.53-7.26-10-2.5-2.48-6.8-5.63-9.55-7-4.28-2.14-6.37-2.5-14.5-2.5-7.83 0-10.38 0.41-14.5 2.31-2.75 1.28-7.16 3.98-9.8 6-2.64 2.03-6.91 6.33-9.5 9.56l-4.7 5.87c-1.95-10.65-3.59-15.99-4.9-18.74-1.32-2.75-4.13-6.47-6.25-8.26-2.12-1.78-5.87-3.93-8.35-4.76-2.48-0.83-7.2-1.48-10.5-1.45-3.3 0.03-7.8 0.71-10 1.51zm145.94 18.24c-2.78 0.94-7 3.07-9.38 4.72-2.39 1.65-5.59 4.8-7.12 7-1.53 2.2-3.51 6.02-4.4 8.5-0.9 2.47-1.65 7.2-1.69 10.5-0.04 3.91 1.22 10.85 3.65 20 2.86 10.81 3.83 16.61 4.23 25.5 0.3 6.58 0.01 15.34-0.68 20.5-0.66 4.95-2.27 14.17-3.57 20.5-1.3 6.32-3.11 14.87-4.03 19-0.92 4.12-1.72 11.32-1.77 16-0.08 7.02 0.33 9.43 2.36 13.92 1.35 2.98 4.08 6.8 6.06 8.5 1.98 1.69 6.03 3.87 9 4.85 2.97 0.97 8.32 1.76 11.9 1.76 3.58-0.01 8.86-0.69 11.75-1.52 3.44-0.99 6.85-2.98 9.87-5.76 2.54-2.34 5.52-6.05 6.62-8.25 1.26-2.5 2.2-6.82 2.5-11.5 0.33-5.2-0.04-9.5-1.21-14-0.93-3.58-3.19-11.45-5.03-17.5-1.83-6.05-4.04-15.73-4.91-21.5-0.86-5.78-1.58-15.57-1.58-21.75-0.01-6.19 0.48-14.52 1.09-18.5 0.6-3.99 2.63-13.55 4.5-21.25 2.14-8.79 3.4-16.42 3.38-20.5-0.01-4.14-0.69-7.96-1.86-10.5-1.01-2.2-2.69-4.76-3.73-5.69-1.04-0.93-3.58-2.4-5.64-3.25-2.06-0.86-6.34-1.55-9.5-1.53-3.16 0.02-8.03 0.8-10.81 1.75zm-197.44 6.52c-3.02 1.24-6.46 2.92-7.64 3.72-1.18 0.81-4.29 3.5-6.92 5.98-2.64 2.47-5.95 6.2-7.36 8.29-1.42 2.08-2.58 3.79-2.58 3.78 0 0-0.98-2.61-2.17-5.79-1.19-3.18-3.44-7.31-5-9.17-1.56-1.86-4.63-4.33-6.83-5.49-3.15-1.66-5.8-2.1-12.5-2.1-6.8 0-9.3 0.43-12.5 2.15-2.2 1.19-5.67 3.88-7.7 5.99-2.04 2.11-4.4 5.52-5.25 7.59-0.85 2.06-1.55 5.1-1.55 6.75 0 1.65 0.71 4.68 1.58 6.75 0.87 2.06 4.05 7.12 7.06 11.25 3.54 4.85 6.18 9.79 7.45 14 1.09 3.57 2.45 10.55 3.04 15.5 0.77 6.47 0.75 11.95-0.04 19.5-0.62 5.77-2.21 16.12-3.54 23-1.33 6.87-3.8 18.12-5.48 25-1.69 6.87-3.35 15.2-3.68 18.5-0.36 3.57-0.12 7.81 0.61 10.5 0.79 2.91 2.68 5.96 5.36 8.63 2.87 2.86 5.83 4.64 9.64 5.76 3.02 0.89 8.09 1.62 11.25 1.62 3.16-0.01 8.34-0.82 11.5-1.82 3.16-0.99 7.89-3.24 10.5-5 2.61-1.75 6.18-5.33 7.93-7.94 1.75-2.62 3.84-6.78 4.65-9.25 1.09-3.31 1.33-7.01 0.9-14-0.45-7.5-1.65-12.98-5.66-26-2.8-9.08-5.76-20.55-6.58-25.5-0.81-4.95-1.48-12.83-1.47-17.5 0-4.68 0.59-10.75 1.31-13.5 0.73-2.75 2.18-6.77 3.24-8.94 1.06-2.16 3.18-4.86 4.72-6 2.18-1.62 3.16-1.82 4.5-0.96 1.06 0.68 2.3 3.93 3.26 8.5 0.85 4.07 2.45 8.97 3.56 10.9 1.1 1.92 3.55 4.52 5.45 5.77 2.45 1.63 4.88 2.27 8.44 2.25 3.36-0.02 6.96-0.95 11-2.86 3.96-1.87 7.64-4.68 10.81-8.25 2.68-3.01 5.74-7.86 6.89-10.91 1.13-3.03 2.28-8.88 2.54-13 0.32-5.19-0.06-9.51-1.24-14-0.93-3.58-2.74-8.53-4.01-11-1.27-2.48-3.81-5.94-5.65-7.7-1.84-1.75-5.36-4.11-7.84-5.23-3.15-1.42-6.6-2.03-11.5-2.03-4.97 0-8.6 0.66-12.5 2.26zm247-1.01c-1.92 0.65-5.14 2.76-7.15 4.69-2.24 2.17-4.07 5.15-4.75 7.77-0.78 3.02-0.8 5.62-0.05 9 0.58 2.61 2.82 7.67 4.99 11.25 2.17 3.57 5.13 9.87 6.58 14 2.36 6.69 2.7 9.38 3.14 25 0.37 13.36 0.1 19.98-1.17 28-0.91 5.77-3.88 19.95-6.61 31.5-2.72 11.55-4.97 23.47-4.99 26.5-0.04 4.1 0.53 6.37 2.23 8.94 1.25 1.89 3.86 4.36 5.78 5.47 2.62 1.52 5.76 2.13 12.5 2.41 7.25 0.29 10.07-0.03 14.5-1.68 3.02-1.12 7.52-3.8 10-5.96 2.48-2.15 5.5-5.88 6.71-8.3 1.22-2.41 2.69-6.86 3.26-9.88 0.58-3.03 1.04-7.75 1.03-10.5 0-2.75-0.91-10.18-2.01-16.5-1.1-6.33-2.72-16-3.59-21.5-1-6.28-1.41-13.17-1.09-18.5 0.27-4.68 1.1-10.49 1.84-12.92 0.74-2.43 3.04-6.37 5.1-8.75 3.26-3.76 4.28-4.33 7.75-4.33 3.11 0 4.67 0.66 7 3 2.32 2.31 3.37 4.76 4.65 10.75 1.22 5.75 1.48 10.32 1.03 17.75-0.33 5.5-1.31 13.6-2.18 18-0.86 4.4-3.45 15.65-5.76 25-3.75 15.17-4.2 18.28-4.2 29-0.01 10.35 0.32 12.82 2.4 18 1.51 3.77 4.28 7.95 7.48 11.28 2.85 2.96 7.28 6.25 10.08 7.49 3.98 1.76 6.84 2.2 14 2.18 6.81-0.02 10.09-0.52 13.5-2.04 2.48-1.11 6.43-4.02 8.8-6.46 2.36-2.45 4.82-6.03 5.45-7.95 0.63-1.93 1.17-5.98 1.19-9 0.04-4.69-0.75-7.12-5.38-16.5-2.99-6.05-6.28-14.15-7.33-18-1.2-4.47-2.08-11.89-2.41-20.5-0.42-10.96-0.11-15.85 1.62-26 1.17-6.88 3-17.23 4.06-23 1.06-5.78 1.94-14.55 1.95-19.5 0.01-4.95-0.6-11.93-1.35-15.5-0.76-3.58-2.43-8.75-3.72-11.5-1.3-2.75-4.16-6.78-6.37-8.95-2.2-2.18-6.49-5.05-9.51-6.4-4.87-2.16-6.54-2.39-14.5-1.99-6.42 0.33-10.43 1.1-14 2.71-2.75 1.24-7.25 3.99-10 6.11-2.75 2.13-6.35 5.69-8 7.92-1.65 2.23-3.34 4.06-3.75 4.07-0.41 0.02-1.26-1.66-1.89-3.72-0.62-2.07-2.16-5.78-3.41-8.25-1.25-2.48-3.58-5.85-5.19-7.5-1.61-1.65-4.69-3.88-6.84-4.96-2.54-1.27-6.38-2.04-10.92-2.2-3.85-0.13-8.58 0.29-10.5 0.95zm-361.5 12.24c-3.89 1.6-7.85 4.32-11.25 7.72-3.16 3.16-6.31 7.63-7.91 11.25-1.76 3.94-2.83 8.4-3.14 13-0.35 5.26 0.24 10.35 2.39 20.5 2.15 10.2 2.84 16.19 2.83 24.5-0.01 7.74-0.55 12.77-1.83 17-1.12 3.69-3.03 7.2-4.96 9.13-1.91 1.92-4.68 3.44-7.13 3.9-3.08 0.58-4.81 0.32-7.5-1.14-2.31-1.25-4.35-3.59-5.99-6.89-2.14-4.29-2.55-6.65-2.83-16.5-0.24-8.26 0.27-15.31 1.81-25 1.17-7.43 2.4-18.68 2.72-25 0.46-9.02 0.24-12.58-1.01-16.5-0.94-2.97-2.93-6.25-4.89-8.06-1.82-1.68-5.11-3.65-7.31-4.39-2.68-0.89-6.15-1.12-10.5-0.69-4.08 0.4-8.83 1.76-12.75 3.64-3.44 1.65-8.65 5.36-11.58 8.25-3.76 3.71-5.99 7-7.59 11.25-1.61 4.25-2.13 7.31-1.79 10.5 0.27 2.47 1.21 5.96 2.1 7.75 0.88 1.78 3.24 5.38 5.23 8 1.99 2.61 4.75 7 6.12 9.75 1.38 2.75 3.17 8.15 3.98 12 1.04 4.96 1.28 9.75 0.81 16.5-0.35 5.22-1.3 15.68-2.09 23.25-1.07 10.23-1.18 15.66-0.44 21.25 0.55 4.12 2.01 9.82 3.25 12.67 1.37 3.15 4 6.67 6.75 9.03 2.48 2.13 6.75 4.59 9.5 5.47 3.44 1.11 7.18 1.45 12 1.13 4.17-0.29 9.02-1.38 12-2.72 2.75-1.23 7.25-4.06 10-6.29 2.75-2.22 6.8-6.28 9-9.01l4-4.97c1.3 5.18 2.41 8.71 3.31 11.19 0.89 2.47 2.76 5.79 4.16 7.37 1.39 1.58 4.11 3.54 6.03 4.35 1.93 0.82 6.43 1.51 10 1.53 3.57 0.03 8.3-0.53 10.5-1.25 2.2-0.71 5.91-2.58 8.25-4.15 2.34-1.57 5.53-4.77 7.11-7.1 1.57-2.34 3.43-6.05 4.13-8.25 0.76-2.38 1.08-6.45 0.78-10-0.35-4.21-1.86-9-5.04-16-2.49-5.5-5.22-12.48-6.06-15.5-0.84-3.03-2.03-9.78-2.64-15-0.77-6.61-0.81-12.7-0.13-20 0.54-5.78 1.95-14.78 3.14-20 1.18-5.23 2.83-12.43 3.66-16 0.84-3.58 1.58-10.1 1.66-14.5 0.11-6.45-0.26-8.68-1.92-11.5-1.13-1.93-3.6-4.53-5.5-5.78-2.78-1.85-4.77-2.27-10.44-2.23-5.08 0.04-8.64 0.73-13 2.54zm572 5.84c-2.75 1.29-6.94 4.33-9.31 6.74-2.37 2.41-5.64 7.2-7.25 10.64-1.62 3.43-3.05 6.25-3.19 6.26-0.14 0.01-3.17-1.21-6.75-2.71-5.77-2.42-7.78-2.73-18-2.77-10.96-0.03-11.82 0.12-18.25 3.22-3.71 1.78-9.07 5.38-11.9 8-2.84 2.61-6.61 7-8.39 9.75-1.79 2.75-4.59 8.37-6.24 12.5-1.65 4.12-3.82 11.32-4.82 16-1.34 6.21-1.83 12.8-1.83 24.5-0.01 13.66 0.32 17.17 2.27 24 1.25 4.4 3.83 11.26 5.72 15.25 1.89 3.98 5.69 9.95 8.44 13.25 2.75 3.3 7.14 7.55 9.75 9.45 2.61 1.9 7.45 4.77 10.75 6.39 3.3 1.62 10.5 4.4 16 6.18 5.5 1.78 11.24 3.85 12.75 4.61 1.51 0.75 3.65 2.83 4.75 4.62 1.17 1.9 1.99 5.01 2 7.5 0 2.33-0.62 5.71-1.37 7.5-0.76 1.78-2.44 4.2-3.75 5.37-1.31 1.17-3.96 2.66-5.88 3.3-2.46 0.83-4.69 0.89-7.5 0.2-2.5-0.61-5.22-2.32-7.25-4.55-1.79-1.97-4.1-5.26-5.13-7.32-1.04-2.07-3.96-5.67-6.5-8-3.02-2.78-6.43-4.78-9.87-5.76-2.89-0.83-6.6-1.51-8.25-1.52-1.65 0-5.02 0.6-7.5 1.34-2.48 0.73-6.91 3.1-9.86 5.26-3.98 2.92-6.11 5.47-8.3 9.93-2.21 4.51-3.08 7.98-3.51 14-0.42 5.76-0.12 9.82 1.07 14.5 0.91 3.57 2.84 8.97 4.3 12 1.62 3.37 5.58 8.44 10.22 13.1 5.84 5.86 9.41 8.47 15.58 11.41 4.51 2.14 11.93 4.6 17 5.63 4.95 1.01 11.25 1.84 14 1.85 2.75 0.02 8.94-0.65 13.75-1.48 4.81-0.83 11.56-2.8 15-4.37 3.44-1.56 8.73-4.73 11.75-7.03 3.02-2.3 7.41-6.53 9.75-9.4 2.34-2.87 5.56-7.69 7.16-10.71 1.61-3.03 3.65-8.2 4.55-11.5 0.91-3.3 1.89-11.63 2.2-18.5 0.53-11.81 0.34-13.61-3.48-32.5-2.22-11-4.39-22.25-4.81-25-0.43-2.75-0.81-16.7-0.85-31-0.04-14.3-0.46-32.98-0.93-41.5-0.74-13.41-0.63-16.01 0.78-19.25 1.35-3.1 2.37-3.94 5.88-4.86 2.34-0.6 5.83-1.73 7.75-2.5 1.92-0.77 4.93-2.86 6.69-4.65 1.75-1.78 3.66-4.48 4.25-5.99 0.58-1.52 1.07-5.79 1.07-9.5 0.01-5.14-0.57-7.95-2.43-11.75-1.44-2.96-4-6.1-6.26-7.7-2.1-1.48-5.06-3.17-6.57-3.75-1.51-0.58-5.34-1.05-8.5-1.04-3.94 0-7.33 0.75-10.75 2.36zm-46.45 60.38c3.66-4.23 4.57-4.76 8.28-4.79 3.24-0.03 4.81 0.58 7.03 2.75 1.57 1.53 3.77 4.59 4.87 6.79 1.11 2.2 2.63 6.92 3.38 10.5 0.74 3.57 1.36 9.53 1.37 13.25 0.01 3.71-0.65 9.9-1.48 13.75-0.83 3.85-2.17 8.35-3 10-0.83 1.65-2.74 3.76-4.25 4.7-1.51 0.94-4.55 1.86-6.75 2.06-2.78 0.24-4.99-0.28-7.25-1.71-1.79-1.13-4.32-4.19-5.63-6.8-1.31-2.62-2.94-7.23-3.62-10.25-0.79-3.48-1.06-9.36-0.73-16 0.29-5.78 1.23-12.53 2.09-15 0.87-2.48 3.43-6.64 5.69-9.25zm-383.43 8.22c-1 1.36-1.87 2.95-1.93 3.53-0.06 0.58-1.63 4.42-3.49 8.52-1.87 4.11-4.25 8.71-5.29 10.23-1.05 1.51-2.7 2.76-3.66 2.78-0.96 0.03-3.04-1.21-4.61-2.75-1.57-1.53-3.78-4.58-4.91-6.78-1.12-2.2-2.84-6.25-3.82-9-0.97-2.75-2.25-5.12-2.84-5.25-0.59-0.14-1.56 0.98-2.16 2.5-0.64 1.58-0.85 5.18-0.5 8.5 0.32 3.16 1.68 8.33 3.01 11.5 1.33 3.16 3.85 9.12 5.6 13.25 2.44 5.74 3.31 9.48 3.71 16 0.37 6.06 0.05 10.29-1.11 14.75-0.89 3.43-3.03 9.06-4.76 12.5-1.97 3.92-5.79 8.88-10.25 13.31-5.66 5.62-9.36 8.21-18.11 12.64-6.05 3.06-14.26 6.75-18.25 8.18-3.99 1.44-9.16 2.63-11.5 2.64-3.37 0.01-4.79-0.55-6.84-2.75-1.43-1.53-3.68-4.53-5-6.68-1.33-2.15-3.65-4.74-5.16-5.75-1.51-1.01-3.65-1.84-4.75-1.84-1.52 0-2 0.66-1.99 2.75 0.01 1.51 1.16 5.22 2.56 8.25 1.4 3.02 2.81 7.3 3.12 9.5 0.31 2.2 0.29 5.57-0.05 7.5-0.36 2.04-3.95 8.27-8.66 15-4.42 6.32-8.03 12.51-8.01 13.75 0.02 1.23 1.04 2.9 2.28 3.7 1.24 0.8 4.16 2.15 6.5 3 3.12 1.13 4.92 1.28 6.75 0.55 1.38-0.55 5.65-5.28 9.5-10.5 3.94-5.35 9.51-11.47 12.75-14 3.16-2.47 8.23-5.83 11.25-7.45 3.02-1.63 9.1-3.89 13.5-5.02 4.4-1.13 10.48-2.06 13.5-2.05 3.02 0 7.98 0.73 11 1.63 4.68 1.4 6.76 2.92 14 10.27 4.68 4.75 10.19 10.54 12.25 12.87 2.06 2.34 4.2 4.02 4.75 3.75 0.55-0.28 1.4-1.52 1.89-2.75 0.59-1.51 0.41-3.41-0.56-5.75-0.79-1.93-2.75-5.53-4.36-8-1.61-2.48-2.93-5.74-2.95-7.25-0.01-1.87 0.7-3.11 2.23-3.88 1.44-0.71 4.23-0.85 7.75-0.38 3.02 0.41 7.08 1.3 9 1.99 1.93 0.69 7.33 3.08 12 5.32 4.68 2.24 11.88 6.25 16 8.92 4.13 2.68 9.08 5.51 11 6.3 1.92 0.79 4.4 1.29 5.5 1.11 1.1-0.18 2.23-0.5 2.5-0.72 0.27-0.21-0.85-2.25-2.5-4.52-1.65-2.27-6.02-6.89-9.71-10.26-3.69-3.38-6.74-6.58-6.76-7.13-0.03-0.55 3.21-2.75 7.21-4.89 3.99-2.14 8.77-5.06 10.62-6.5 1.84-1.44 4.19-3.96 5.22-5.61 1.02-1.65 1.87-3.34 1.89-3.75 0.02-0.42-0.76-0.75-1.72-0.75-0.96 0-6.25 1.61-11.75 3.57-7.64 2.73-12.48 3.78-20.5 4.42-5.77 0.46-14.1 0.45-18.5-0.02-4.4-0.48-10.47-1.34-13.5-1.93-3.02-0.59-10.45-1.54-16.5-2.11-6.05-0.58-11.13-1.13-11.29-1.24-0.16-0.11 2.4-4.69 5.68-10.19 3.28-5.5 7.3-13.6 8.93-18 1.64-4.4 3.51-11.83 4.16-16.5 0.66-4.68 1.77-11.65 2.47-15.5 0.71-3.85 3.17-11.73 5.47-17.5 2.3-5.78 4.68-13.65 5.28-17.5 0.71-4.55 0.77-8.41 0.17-11l-0.93-4zm-182.62 96.39c-3.03 0.66-7.68 2.31-10.33 3.67-2.66 1.35-7.3 4.94-10.32 7.96-3.26 3.28-6.88 8.34-8.94 12.5-2.37 4.81-3.65 9.04-4.07 13.5-0.36 3.78-0.13 8.6 0.54 11.5 0.65 2.75 4.08 10.18 7.64 16.5 3.56 6.33 7.6 14.88 8.97 19 1.38 4.13 3.19 11.1 4.03 15.5 0.84 4.4 1.8 14.53 2.14 22.5 0.35 8.08 0.09 22.7-0.58 33-0.66 10.18-2.07 26.49-3.14 36.25-1.07 9.77-1.94 20.12-1.93 23q0.01 5.25 2.5 10.5c1.68 3.56 3.86 6.19 6.74 8.14 2.34 1.59 6.95 3.68 10.25 4.64 4.83 1.4 8.42 1.64 18.5 1.22 9-0.38 14.46-1.15 19.5-2.75 3.85-1.23 9.92-3.7 13.5-5.5 3.57-1.8 9.2-5.29 12.5-7.75 3.3-2.47 8.92-7.62 12.5-11.46 3.83-4.11 8.62-10.84 11.66-16.38 2.84-5.17 6.35-12.78 7.81-16.91 1.46-4.12 3.53-12.56 4.59-18.75 1.07-6.18 1.94-14.51 1.94-18.5 0-3.98-0.64-10.85-1.41-15.25-0.77-4.4-2.39-10.92-3.58-14.5-1.2-3.57-3.58-8.97-5.3-12-1.72-3.02-5.39-7.77-8.17-10.55-2.77-2.79-7.52-6.26-10.54-7.72-3.03-1.47-7.98-3.05-11-3.53-3.03-0.48-8.2-0.5-11.5-0.05-3.3 0.45-8.03 1.83-10.5 3.05-2.48 1.23-7.43 5.27-11 8.99-3.58 3.72-6.73 6.77-7 6.78-0.28 0.01-0.36-3.24-0.19-7.22 0.17-3.99 1.27-15.12 2.44-24.75 1.33-10.93 2.15-23.69 2.19-34 0.05-15.05-0.13-16.85-2.09-20.5-1.19-2.2-3.21-5.02-4.5-6.27-1.3-1.25-5.05-2.93-8.35-3.74-3.3-0.8-6.9-1.42-8-1.39-1.1 0.04-4.48 0.61-7.5 1.27zm37.57 124.77c3.52-3.15 4.11-3.33 9.34-2.88 4.84 0.42 5.99 0.94 8.59 3.95 1.65 1.9 3.6 5.45 4.34 7.88 0.89 2.9 1.21 7.67 0.93 13.91-0.32 7.25-0.99 10.8-2.84 14.95-1.65 3.68-3.73 6.37-6.43 8.28-2.91 2.06-5.16 2.82-8.25 2.8-2.34-0.01-5.6-0.7-7.25-1.53-1.66-0.82-4.01-3.4-5.25-5.75-1.96-3.69-2.25-5.75-2.25-15.75 0-10.4 0.25-12.02 2.66-17 1.46-3.02 4.35-7.01 6.41-8.86zm348.93-124.69c-2.75 0.62-7.03 2.29-9.5 3.72-2.48 1.43-6.5 4.79-8.95 7.47-2.45 2.67-5.37 6.89-6.5 9.36-1.63 3.59-2.05 6.54-2.05 14.5 0.01 9.57 0.25 10.71 5.73 26.5 3.14 9.08 6.71 21.23 7.92 27 1.94 9.19 2.21 13.57 2.22 35 0 19.9-0.43 27.7-2.28 41.5-1.26 9.35-3.57 21.28-5.13 26.5-1.57 5.23-4.27 12.88-6.02 17-1.74 4.13-4.01 10.2-5.04 13.5-1.04 3.3-1.89 8.7-1.89 12 0 4.25 0.58 6.95 1.99 9.25 1.29 2.1 4.04 4.21 7.75 5.96 4.15 1.96 7.83 2.82 13.25 3.13 5.24 0.29 9.3-0.1 13.5-1.32 3.3-0.95 7.8-2.97 10-4.47 2.2-1.5 5.47-4.49 7.27-6.64 1.8-2.15 4.16-6.27 5.25-9.16 1.2-3.19 2.21-9.06 2.57-15 0.48-7.74 0.05-13.44-2.09-27.75-1.97-13.25-2.59-20.78-2.34-28.57 0.3-9.39 0.67-11.22 3.34-16.45 1.84-3.61 4.35-6.78 6.5-8.21 1.92-1.28 4.85-2.33 6.5-2.33 1.65 0 4.24 0.91 5.75 2.03 1.64 1.21 3.61 4.35 4.88 7.78 1.68 4.53 2.13 7.98 2.13 16.25-0.01 5.78-0.74 14.89-1.64 20.25-0.89 5.37-3.43 18.19-5.65 28.5-2.21 10.32-4.49 23.03-5.06 28.25-0.7 6.46-0.71 11.59-0.02 16 0.55 3.58 1.93 8.64 3.06 11.25 1.13 2.62 3.55 6.44 5.39 8.5 1.84 2.07 5.55 4.81 8.25 6.11 2.7 1.3 7.61 2.81 10.91 3.37 4.35 0.73 7.65 0.67 12-0.21 3.3-0.68 8.02-2.26 10.5-3.52 2.47-1.26 5.48-3.36 6.69-4.65 1.21-1.29 2.9-4.03 3.75-6.1 0.86-2.06 1.55-5.88 1.54-8.5-0.01-3.33-1.46-8.32-4.87-16.75-2.67-6.6-5.7-15.15-6.73-19-1.56-5.79-1.87-10.44-1.83-27 0.05-17.69 0.37-21.55 2.79-33.5 1.5-7.42 3.42-17.32 4.25-22 0.84-4.67 1.57-12.32 1.62-17 0.06-5.38-0.54-10.7-1.65-14.5-0.96-3.3-2.94-8.2-4.4-10.89-1.46-2.69-4.69-6.66-7.16-8.81-2.48-2.15-6.3-4.78-8.5-5.85-2.2-1.06-6.7-2.38-10-2.93-4.15-0.69-7.85-0.67-12 0.09-3.3 0.6-8.7 2.47-12 4.14-3.3 1.68-8.59 5.58-11.76 8.66-3.17 3.07-6 5.37-6.29 5.09-0.29-0.27 0.14-6.35 0.97-13.5 0.82-7.15 2.46-20.42 3.63-29.5 1.5-11.68 2.01-20 1.72-28.5-0.33-9.84-0.8-12.76-2.59-16.25-1.2-2.33-3.42-5.17-4.93-6.3-1.51-1.13-4.33-2.46-6.25-2.96-1.93-0.49-5.75-1.07-8.5-1.28-2.75-0.2-7.25 0.13-10 0.74zm-330.67 12.28c-0.87 0.98-2.03 2.67-2.59 3.77-0.56 1.1-2.64 8.42-4.63 16.25-1.99 7.84-3.61 15.83-3.61 17.75 0 2.84 0.38 3.5 2 3.5 1.1 0 4.75-2.58 8.1-5.75 3.36-3.16 6.96-7.43 8-9.5l1.9-3.75c-5.41-3.77-5.5-4.15-5.5-12.87 0-4.96-0.47-9.51-1.05-10.1-0.75-0.76-1.51-0.56-2.62 0.7zm197.31 24.6c-0.46 0.65-1.13 1.96-1.49 2.92-0.36 0.97 0.25 3.78 1.35 6.25 1.1 2.48 2.9 4.95 4 5.5 1.1 0.55 3.71 1 5.8 1 2.09 0 4.35-0.56 5.01-1.25 0.67-0.68 1.22-2.15 1.22-3.25 0-1.1-1.7-3.64-3.77-5.66-2.07-2.01-5.45-4.34-7.52-5.17-2.84-1.14-3.97-1.23-4.6-0.34zm88.86 4.33c-1.38 0.95-3.32 2.66-4.31 3.79-1 1.13-2.01 3.07-2.25 4.3-0.24 1.24 0.12 2.96 0.81 3.83 0.85 1.08 2.49 1.47 5.15 1.25 2.9-0.24 4.43-1.05 6-3.17 1.34-1.81 2.1-4.34 2.1-7 0-3.69-0.28-4.19-2.5-4.44-1.38-0.15-3.63 0.49-5 1.44zm-48.5 16.51c-4.4 0.45-10.93 1.8-14.5 3.02-3.58 1.22-9.16 4.03-12.42 6.26-3.25 2.23-7.28 6.08-8.95 8.55-1.67 2.48-3.92 6.75-5 9.5-1.31 3.37-1.93 7.3-1.89 12 0.04 3.85 0.84 9.25 1.78 12 0.94 2.75 3.34 7.23 5.34 9.96 2 2.72 7.1 7.44 11.33 10.5 4.23 3.05 11.59 7.79 16.36 10.54 4.76 2.75 10.45 6.8 12.64 9 2.19 2.2 4.84 5.69 5.89 7.75 1.06 2.07 1.92 4.88 1.92 6.25 0 1.38-1.11 3.63-2.46 5-1.55 1.59-3.57 2.5-5.5 2.5-1.67 0-4.5-0.59-6.29-1.31-1.79-0.73-4.38-2.85-5.75-4.71-1.38-1.87-4.1-6.34-6.06-9.94-2.86-5.26-4.63-7.19-9-9.86-4.85-2.95-6.1-3.28-11.51-3-4.76 0.25-6.87 0.92-9.75 3.07-2.03 1.52-4.53 4.44-5.56 6.5-1.03 2.07-2.38 6.12-3 9-0.62 2.89-1.12 7.28-1.12 9.75 0 2.48 0.71 7.99 1.57 12.25 0.87 4.27 3.08 10.9 4.92 14.75 1.84 3.85 5.97 10.13 9.18 13.94 3.2 3.82 8.98 9.09 12.83 11.73 3.85 2.63 10.37 6.03 14.5 7.56 6.62 2.45 8.84 2.77 19 2.73 9.91-0.03 12.6-0.42 19.5-2.81 4.4-1.52 10.88-4.66 14.41-6.96 3.53-2.3 8.62-6.66 11.31-9.69 2.69-3.02 6.22-8.2 7.85-11.5 1.62-3.3 3.68-9.6 4.57-14 1.33-6.62 1.41-9.2 0.47-15-0.67-4.13-2.66-10.07-4.84-14.5-2.25-4.56-6.06-9.99-9.74-13.86-3.32-3.5-10.31-9.16-15.53-12.57-5.23-3.41-11.98-7.73-15-9.6-3.03-1.87-7.75-5.07-10.5-7.11-2.75-2.05-5.79-5.1-6.75-6.79-0.96-1.69-1.75-4.87-1.75-7.07 0-2.2 0.45-4.9 1-6 0.55-1.1 2.35-2.67 4-3.5 1.65-0.82 3.9-1.5 5-1.5 1.1 0 3.39 0.79 5.08 1.75 2.22 1.26 4.24 4.13 7.22 10.25 2.27 4.68 5.72 10.2 7.66 12.27 2.61 2.79 4.85 4.06 8.54 4.86 3.84 0.84 6.04 0.79 9.5-0.22 2.73-0.8 6.11-2.91 8.59-5.36 3.28-3.24 4.35-5.24 5.39-10.05 1.01-4.7 1.04-7.19 0.13-11.5-0.64-3.02-2.16-7.48-3.39-9.91-1.22-2.43-4.25-6.64-6.72-9.36-2.48-2.72-6.75-6.21-9.5-7.77-2.75-1.55-8.83-3.91-13.5-5.25-4.68-1.34-11.88-2.64-16-2.89-4.13-0.25-11.1-0.09-15.5 0.35zm-171.01 1.62c-2.75 0.94-7.25 3.13-10 4.87-2.75 1.73-6.23 4.77-7.74 6.75-1.51 1.98-3.36 5.47-4.1 7.76-0.74 2.29-1.13 5.78-0.86 7.75 0.26 1.97 1.16 4.93 2.01 6.58 0.84 1.65 3.4 5.7 5.68 9 2.28 3.3 5.2 8.7 6.49 12 1.86 4.78 2.43 8.55 2.81 18.5 0.32 8.41-0.1 17.42-1.28 27.5-1.13 9.66-1.56 18.21-1.19 24 0.31 4.95 1.25 11.25 2.08 14 0.83 2.75 2.88 6.92 4.56 9.25 1.67 2.34 4.74 5.38 6.8 6.76 2.1 1.4 6.61 3 10.25 3.64 4.91 0.87 7.97 0.86 12.5-0.02 3.3-0.64 8.7-2.43 12-3.97 3.3-1.55 8.82-5.47 12.28-8.73 3.45-3.26 6.42-5.7 6.59-5.43 0.17 0.28 0.94 2.75 1.7 5.5 0.77 2.75 2.64 6.92 4.16 9.25 2.05 3.15 4.39 5.03 9.02 7.25 4.95 2.38 7.6 3 12.75 3.01 3.57 0.01 8.75-0.64 11.5-1.44 2.75-0.8 6.8-2.86 9-4.58 2.2-1.73 5.01-4.79 6.24-6.81 1.46-2.39 2.24-5.25 2.23-8.18 0-2.83-1.31-7.65-3.51-13-1.92-4.67-4.38-11.65-5.45-15.5-1.08-3.85-2.44-11.27-3.03-16.5-0.6-5.22-0.79-12.87-0.44-17 0.35-4.12 1.3-11.77 2.1-17 0.8-5.22 3.02-16.02 4.93-24 1.9-7.97 3.45-17.08 3.44-20.25-0.01-3.16-0.6-7.21-1.33-9-0.72-1.78-2.63-4.23-4.25-5.43-1.61-1.19-5.75-2.91-9.2-3.8-5.04-1.3-7.35-1.42-11.75-0.57-3.02 0.58-7.62 2.12-10.23 3.43-2.61 1.31-6.44 4.23-8.5 6.5-2.06 2.27-4.28 5.14-4.91 6.37-0.64 1.24-1.76 4.5-2.49 7.25-0.73 2.75-1.33 8.6-1.33 13-0.01 4.4 0.89 13.18 1.98 19.5 1.09 6.33 1.99 14.65 2 18.5 0.01 3.85-0.66 9.37-1.49 12.25-0.85 2.94-2.95 6.83-4.76 8.82-1.79 1.96-5.05 4.23-7.25 5.05-3.37 1.25-4.63 1.28-7.97 0.18-2.59-0.85-4.75-2.5-6.26-4.8-1.27-1.92-2.81-5.97-3.42-9-0.64-3.17-0.88-9.93-0.56-16 0.29-5.77 1.76-17.25 3.26-25.5 1.49-8.25 2.77-18.6 2.82-23 0.07-4.75-0.47-9.62-1.33-12-0.8-2.2-2.6-5.31-4-6.92-1.4-1.6-4.79-3.96-7.54-5.24-3.85-1.78-6.73-2.31-12.5-2.29-4.42 0.01-9.56 0.72-12.51 1.74z"/>
</svg>